<?xml version="1.0" standalone="no"?>
<!DOCTYPE svg PUBLIC "-//W3C//DTD SVG 1.1//EN" "http://www.w3.org/Graphics/SVG/1.1/DTD/svg11.dtd" >
<svg xmlns="http://www.w3.org/2000/svg">
<metadata>
Created by FontForge 20120731 at Fri Jul 14 10:33:05 2017
 By admin
</metadata>
<defs>
<font id="iconfont" horiz-adv-x="1024" >
  <font-face 
    font-family="iconfont"
    font-weight="500"
    font-stretch="normal"
    units-per-em="1024"
    panose-1="2 0 6 3 0 0 0 0 0 0"
    ascent="896"
    descent="-128"
    x-height="792"
    bbox="-195 -323 1713.95 1091"
    underline-thickness="0"
    underline-position="0"
    unicode-range="U+0078-EA58"
  />
<missing-glyph 
 />
    <glyph glyph-name=".notdef" 
 />
    <glyph glyph-name=".notdef" 
 />
    <glyph glyph-name=".null" horiz-adv-x="0" 
 />
    <glyph glyph-name="nonmarkingreturn" horiz-adv-x="341" 
 />
    <glyph glyph-name="glyph3" unicode="x" horiz-adv-x="1001" 
d="M281 543q-27 -1 -53 -1h-83q-18 0 -36.5 -6t-32.5 -18.5t-23 -32t-9 -45.5v-76h912v41q0 16 -0.5 30t-0.5 18q0 13 -5 29t-17 29.5t-31.5 22.5t-49.5 9h-133v-97h-438v97zM955 310v-52q0 -23 0.5 -52t0.5 -58t-10.5 -47.5t-26 -30t-33 -16t-31.5 -4.5q-14 -1 -29.5 -0.5
t-29.5 0.5h-32l-45 128h-439l-44 -128h-29h-34q-20 0 -45 1q-25 0 -41 9.5t-25.5 23t-13.5 29.5t-4 30v167h911zM163 247q-12 0 -21 -8.5t-9 -21.5t9 -21.5t21 -8.5q13 0 22 8.5t9 21.5t-9 21.5t-22 8.5zM316 123q-8 -26 -14 -48q-5 -19 -10.5 -37t-7.5 -25t-3 -15t1 -14.5
t9.5 -10.5t21.5 -4h37h67h81h80h64h36q23 0 34 12t2 38q-5 13 -9.5 30.5t-9.5 34.5q-5 19 -11 39h-368zM336 498v228q0 11 2.5 23t10 21.5t20.5 15.5t34 6h188q31 0 51.5 -14.5t20.5 -52.5v-227h-327z" />
    <glyph glyph-name="home" unicode="&#xe606;" 
d="M512 821q-301 -260 -468 -400q-17 -16 -17 -37q0 -20 14 -34.5t34 -14.5h97v-339q0 -21 14.5 -35t34.5 -14h145q21 0 35 14t14 35v194h194v-194q0 -21 14.5 -35t34.5 -14h145q20 0 34.5 14t14.5 35v339h97q20 0 34.5 14.5t14.5 34.5q0 22 -19 37q-74 63 -190.5 163
t-196.5 168.5l-80 68.5v0z" />
    <glyph glyph-name="gaizhang" unicode="&#xe60c;" 
d="M357 377q-2 -2 -10.5 -12t-10.5 -12q-10 -15 -13.5 -35.5t1.5 -33.5q5 -18 18.5 -24t35.5 -8q20 -2 42 -2.5t52.5 0.5t42.5 1q123 0 135 -1q45 0 59 32q18 39 -14 73q-7 8 -22 22q-24 25 -1 52q29 36 39 52q47 74 33 160t-83 141t-157.5 50.5t-150.5 -66.5
q-65 -70 -61 -164.5t66 -172.5q9 -11 10 -21t-1.5 -16.5t-9.5 -14.5zM892 139q0 36 -16.5 53.5t-51.5 17.5q-293 0 -617 -1q-35 0 -51 -16t-16 -51q-1 -4 -1 -67h753v64zM182 -28h666v69h-666v-69z" />
    <glyph glyph-name="sort-small" unicode="&#xe612;" 
d="M352 352h320l-160 192zM672 224h-320l160 -192z" />
    <glyph glyph-name="shezhi1" unicode="&#xe61a;" horiz-adv-x="1064" 
d="M-49 -72zM1041 -72zM45 -41zM403 301q0 55 37.5 92.5t92.5 37.5t92.5 -37.5t37.5 -92.5t-37.5 -93t-92.5 -38t-92 38q-38 38 -38 93zM219 216q11 -39 33 -78l-86 -106l97 -97l106 86q37 -21 79 -34l14 -134h140l15 134q36 11 79 34l105 -86l98 97l-86 106q22 41 33 78
l134 15v140l-134 14q-10 32 -33 79l86 105l-98 99l-105 -87q-49 25 -79 34l-15 134h-140l-14 -134q-37 -11 -79 -34l-106 87l-97 -99l86 -105q-23 -45 -33 -79l-135 -14v-140zM1021 -41z" />
    <glyph glyph-name="dianpu" unicode="&#xe61c;" 
d="M862 765l-8 12h-653l-8 -10q-59 -76 -92 -143.5t-38.5 -117t-1.5 -82.5t17 -59q22 -44 62 -70t86 -26h5q92 3 156 69q57 -65 142 -65q88 0 145 69q86 -71 164 -71q66 0 112 54q23 27 30.5 65.5t3 77t-18.5 82.5t-29 77.5t-33.5 68t-26.5 48t-14 21.5zM226 320
q-28 0 -57 17.5t-45 50.5q-10 21 -13 47.5t2.5 68t34 99t78.5 122.5h601q18 -29 36 -63t36 -79t28 -85t7 -78.5t-24 -61.5q-30 -36 -72 -36q-30 0 -64.5 17t-51.5 30t-31 26v177h-51v-191q-41 -57 -111 -57q-31 0 -58 14t-38 25.5t-19 23.5v185h-51v-184q-10 -13 -23 -25
t-44 -27t-67 -16h-3v0zM823 13q-10 -26 -30 -34h-528q-9 0 -16 2.5t-12 7t-9.5 10t-7 11t-4 10l-2.5 7.5l-1 3v166h-51v-170q3 -15 9.5 -30.5t18.5 -31.5t31.5 -26.5t43.5 -10.5l539 1q7 2 16 6t26.5 22t26.5 44l2 200h-52v-187v0z" />
    <glyph glyph-name="icon4" unicode="&#xe607;" 
d="M991 305q0 98 -38 186.5t-102.5 153t-153 102.5t-186 38t-186 -38t-153 -102.5t-102.5 -153t-38 -186.5q0 -101 40 -191t111 -157v-1l12 -10q51 -46 114 -75l1.5 -1t2.5 -1l4 -2v0q80 -35 167 -40v0h5h1v0q3 -1 4 -1h3h3h3.5h2.5h5.5h5.5h3h3h3h3t4 1h0.5h0.5h5v0
q98 5 186 49q56 28 103 70l12 10v1q71 66 111 156.5t40 191.5zM65 305q0 91 35.5 174t95 142.5t142.5 95t173.5 35.5t173.5 -35.5t142.5 -95t95 -142.5t35.5 -174q0 -94 -37 -178t-103 -146q-49 47 -138 72q-31 14 -38 19l-7 7q-16 16 -18 31v69q23 27 41 87q12 5 22.5 18
t13.5 30q8 36 -6 54q19 71 16 129t-27 90q-26 34 -71 34q-3 3 -7 8q-10 14 -25.5 20.5t-51.5 6.5h-6q-97 0 -145 -57q-62 -74 -35 -233q-12 -17 -6 -51q7 -34 32 -47q20 -60 45 -88q2 -63 0 -73q-2 -14 -16 -28q-12 -12 -45 -25q-92 -25 -141 -73q-66 62 -103 146t-37 178z
M725 -87h-0.5h-0.5l-4 -2q-3 -2 -6 -3q0 -1 -1 -1h-1q-85 -43 -181 -48v0h-1h-8h-2h-8.5h-8.5h-1h-1h-8h-1q-91 4 -174 44h-0.5h-0.5q-2 2 -5 3q-44 22 -82 53q43 41 127 64q41 16 57 33q21 21 26 45q2 15 0 86v6l-5 5q-23 24 -45 88l-1 11h-12q-3 1 -8 8t-6 16q-3 15 -1 24
l11 2l-3 16q-27 150 26 215q38 45 120 45h6q19 0 30 -2t14 -4t7 -7q9 -13 20 -19l4 -3l9 1q29 0 45 -22q20 -26 20.5 -80.5t-18.5 -121.5l-2 -16l12 -4q2 -9 -1 -24q-3 -13 -12 -22l-13 11l-7 -23q-19 -68 -41 -90l-5 -5v-84q4 -28 28 -52l8 -8q12 -10 49 -26
q82 -23 124 -63q-32 -26 -68 -46z" />
    <glyph glyph-name="gouwu1" unicode="&#xe601;" 
d="M735 -4h-447q-7 0 -12 5t-4 12l37 432q1 7 5.5 11t10.5 4h380q6 0 10.5 -4.5t5.5 -10.5l30 -432q1 -7 -4 -12t-12 -5zM305 28h413l-28 400h-350zM645 489h-32q0 27 -11.5 46.5t-28.5 28.5t-31.5 13t-27 4t-27.5 -4t-32 -13t-28 -28.5t-11 -46.5h-32q0 33 12.5 58t33 39
t42 20.5t42.5 6.5t43 -6.5t42 -20.5t33 -39t13 -58zM366 382.5q0 14.5 10 24.5t24.5 10t24.5 -10t10 -24.5t-10 -24.5t-24.5 -10t-24.5 10t-10 24.5zM590 382q0 15 10 25t24.5 10t24.5 -10t10 -24.5t-10 -24.5t-24.5 -10t-24.5 10t-10 24v0z" />
    <glyph glyph-name="15jiajianjia" unicode="&#xe634;" 
d="M1219 406h-685v685h-44v-685h-685v-44h685v-685h44v685h685v44z" />
    <glyph glyph-name="16jiajianjian" unicode="&#xe635;" 
d="M-195 406h1414v-44h-1414v44z" />
    <glyph glyph-name="shouc01" unicode="&#xe61f;" 
d="M955 383l-316 46l-142 286l-158 -305q3 -4 11.5 -12t12.5 -12l134 256l120 -243l268 -39l-194 -189l46 -267l-240 126l-240 -126l46 267l-194 189l148 20l-28 28l-190 -25l229 -223l-54 -315l283 148l283 -148l-54 315z" />
    <glyph glyph-name="xia" unicode="&#xe756;" 
d="M958 545l-446 -446l-446 446h892zM958 545z" />
    <glyph glyph-name="back1" unicode="&#xe74d;" 
d="M1024 300q0 -104 -40.5 -199t-109 -163.5t-163.5 -109t-199 -40.5t-199 40.5t-163.5 109t-109 163.5t-40.5 199t40.5 199t109 163.5t163.5 109t199 40.5t199 -40.5t163.5 -109t109 -163.5t40.5 -199zM512 767q-95 0 -181.5 -37t-149 -99.5t-99.5 -149t-37 -181.5
t37 -181.5t99.5 -149t149 -99.5t181.5 -37t181.5 37t149 99.5t99.5 149t37 181.5t-37 181.5t-99.5 149t-149 99.5t-181.5 37zM350 300l264 -263l-24 -24l-287 287l287 287l23 -24z" />
    <glyph glyph-name="gengduo" unicode="&#xe63a;" 
d="M192 396q40 0 68 -28t28 -68t-28 -68t-68 -28t-68 28t-28 68t28 68t68 28zM192 428q-53 0 -90.5 -37.5t-37.5 -90.5t37.5 -90.5t90.5 -37.5t90.5 37.5t37.5 90.5t-37.5 90.5t-90.5 37.5v0zM512 396q40 0 68 -28t28 -68t-28 -68t-68 -28t-68 28t-28 68t28 68t68 28z
M512 428q-53 0 -90.5 -37.5t-37.5 -90.5t37.5 -90.5t90.5 -37.5t90.5 37.5t37.5 90.5t-37.5 90.5t-90.5 37.5v0zM832 396q40 0 68 -28t28 -68t-28 -68t-68 -28t-68 28t-28 68t28 68t68 28zM832 428q-53 0 -90.5 -37.5t-37.5 -90.5t37.5 -90.5t90.5 -37.5t90.5 37.5
t37.5 90.5t-37.5 90.5t-90.5 37.5v0z" />
    <glyph glyph-name="star1" unicode="&#xe61e;" 
d="M267 337v0v0zM1004 520.5q-5 14.5 -17.5 24t-27.5 9.5l-303 6l-100 283q-5 15 -17.5 24t-28 9t-28 -9t-17.5 -24l-100 -283l-303 -6q-15 0 -27.5 -9.5t-17.5 -24.5t0 -29.5t17 -23.5l241 -181l-87 -287q-5 -15 0 -29.5t17 -23.5q13 -9 28.5 -9.5t28.5 8.5l249 171
l249 -171q12 -9 27 -9q16 0 29 10q12 9 17 23.5t1 29.5l-88 287l241 181q13 9 17.5 24t-0.5 29.5zM963 498l-252 -189q-12 -8 -7 -22l91 -300q2 -5 -3 -9t-10 0l-260 179q-5 4 -11.5 4t-11.5 -4l-260 -179q-5 -4 -10 0t-3 9l92 300q4 14 -8 22l-252 189q-5 4 -3 10t8 6
l317 6q14 1 18 14l104 296q2 5 8.5 5t8.5 -5l104 -296q4 -13 18 -14l317 -6q6 0 8 -6t-3 -10z" />
    <glyph glyph-name="info" unicode="&#xe60a;" 
d="M512 -58q-44 0 -90 8l-211 -128v213q-84 59 -132.5 145t-48.5 184q0 114 64.5 211.5t175.5 153.5t242 56t242 -56t175.5 -153.5t64.5 -212t-64.5 -211.5t-175.5 -153.5t-242 -56.5zM512 725q-114 0 -211.5 -48.5t-153.5 -131.5t-56 -181q0 -90 48 -168t131 -128l-1 -139
l141 85q52 -11 102 -11q114 0 211.5 48t153.5 131.5t56 181.5t-56 181t-153.5 131.5t-211.5 48.5zM723 394h-422q-12 0 -21 9t-9 21.5t9 21t21 8.5h422q12 0 21 -8.5t9 -21t-9 -21.5t-21 -9zM361 274h302q12 0 21 -9t9 -21.5t-9 -21.5t-21 -9h-302q-12 0 -21 9t-9 21.5
t9 21.5t21 9z" />
    <glyph glyph-name="cloud" unicode="&#xe6bd;" 
d="M116.5 158q52.5 -51 126.5 -51h508q86 0 147.5 59.5t61.5 143.5q0 59 -33 109t-87 74q1 13 1 20q0 96 -70 164t-169 68q-74 0 -134 -40t-88 -104q-32 28 -77 28q-50 0 -85 -34t-35 -82q0 -34 20 -63q-61 -13 -100 -60.5t-39 -108.5q0 -72 52.5 -123z" />
    <glyph glyph-name="all" unicode="&#xe696;" 
d="M461 410h25v25v218q0 101 -71 172t-172 71t-172 -71t-71 -172t71 -172t172 -71h218zM51 652.5q0 79.5 56.5 136t136 56.5t135.5 -56.5t56 -135.5v-218l26 26h-218q-79 0 -135.5 56t-56.5 135.5zM461 307l-26 26v-218q0 -79 -56 -135.5t-135.5 -56.5t-136 56.5t-56.5 136
t56.5 135.5t135.5 56h218zM0 115q0 -101 71 -172t172 -71t172 71t71 172v218v25h-25h-218q-101 0 -172 -71t-71 -172zM563 461l26 -26v218q0 79 56 135.5t135.5 56.5t136 -56.5t56.5 -136t-56.5 -135.5t-135.5 -56h-218zM1024 653q0 101 -71 172t-172 71t-172 -71t-71 -172
v-218v-25h25h218q101 0 172 71t71 172zM1024 115q0 101 -71 172t-172 71h-218h-25v-25v-218q0 -101 71 -172t172 -71q57 0 107 25q10 5 13.5 15t-1.5 19.5t-15 13t-19 -1.5q-40 -20 -85 -20q-80 0 -136 56.5t-56 135.5v218l-26 -26h218q79 0 135.5 -56t56.5 -136
q0 -28 -8 -54q-3 -10 2 -19.5t15 -12.5t19.5 2t12.5 15q10 34 10 69z" />
    <glyph glyph-name="back" unicode="&#xe697;" 
d="M294 441q-30 -26 -29.5 -64.5t30.5 -65.5l456 -398q9 -9 22 -8t21.5 10.5t8 22.5t-10.5 22l-456 398q-9 8 -9 18.5t9 18.5l456 413q10 9 10.5 22t-8 23t-21.5 10.5t-23 -8.5z" />
    <glyph glyph-name="cart" unicode="&#xe698;" 
d="M235 197q9 -27 35 -46t55 -19h537h18l6 19l123 429q9 32 -9 56.5t-51 24.5h-524q-11 0 -18 -7.5t-7 -18t7 -18t18 -7.5h524q17 0 12 -16l-123 -429l24 18h-537q-13 0 -26 9t-17 21l-208 619q-4 10 -13 15t-19 1.5t-14.5 -13t-1.5 -19.5zM400 -6q0 42 -29.5 71.5t-71 29.5
t-70.5 -29.5t-29 -71.5t29 -71.5t70.5 -29.5t71 29.5t29.5 71.5zM250 -6q0 21 14.5 35.5t35 14.5t35.5 -14.5t15 -35.5t-15 -35.5t-35.5 -14.5t-35 14.5t-14.5 35.5zM924 -6q0 42 -29 71.5t-70.5 29.5t-71 -29.5t-29.5 -71.5t29.5 -71.5t71 -29.5t70.5 29.5t29 71.5zM774 -6
q0 21 15 35.5t35.5 14.5t35 -14.5t14.5 -35.5t-14.5 -35.5t-35 -14.5t-35.5 14.5t-15 35.5z" />
    <glyph glyph-name="category" unicode="&#xe699;" 
d="M134 640q10 0 17 6t7 15t-7 15.5t-17 6.5h-97q-11 0 -18 -6.5t-7 -15.5t7 -15t18 -6h97zM134 363q10 0 17 6t7 15t-7 15t-17 6h-97q-11 0 -18 -6t-7 -15t7 -15t18 -6h97zM134 85q10 0 17 6.5t7 15.5t-7 15t-17 6h-97q-11 0 -18 -6t-7 -15t7 -15.5t18 -6.5h97zM987 640
q11 0 18 6t7 15t-7 15.5t-18 6.5h-707q-10 0 -17 -6.5t-7 -15.5t7 -15t17 -6h707zM994 363q10 0 17 6t7 15t-7 15t-17 6h-708q-10 0 -17 -6t-7 -15t7 -15t17 -6h708zM997 85q10 0 17 6.5t7 15.5t-7 15t-17 6h-707q-11 0 -18 -6t-7 -15t7 -15.5t18 -6.5h707z" />
    <glyph glyph-name="close" unicode="&#xe69a;" 
d="M177 79q-6 -7 -6 -15.5t6.5 -14.5t15 -6t14.5 6l619 640q6 7 6 15.5t-6.5 14.5t-15.5 6t-15 -6zM795 49q6 -6 15 -6t15.5 6t6.5 14.5t-6 15.5l-619 640q-6 6 -14.5 6t-15 -6t-6.5 -14.5t6 -15.5z" />
    <glyph glyph-name="cry" unicode="&#xe69c;" 
d="M1024 384q0 139 -68.5 257t-186.5 186.5t-257 68.5t-257 -68.5t-186.5 -186.5t-68.5 -257t68.5 -257t186.5 -186.5t257 -68.5q179 0 319 111q8 7 9 17t-5.5 18.5t-16.5 9.5t-18 -6q-126 -100 -288 -100q-94 0 -179.5 36.5t-147.5 98.5t-98.5 147.5t-36.5 179.5
t36.5 179.5t98.5 147.5t147.5 98.5t179.5 36.5t179.5 -36.5t147.5 -98.5t98.5 -147.5t36.5 -179.5q0 -132 -70 -244q-5 -9 -2.5 -19t11 -15.5t18.5 -3t16 11.5q77 123 77 270zM337 396q26 0 44.5 18.5t18.5 44.5t-18.5 44t-44.5 18t-44 -18t-18 -44t18 -44.5t44 -18.5z
M712 396q26 0 44 18.5t18 44.5t-18 44t-44 18t-44.5 -18t-18.5 -44t18.5 -44.5t44.5 -18.5zM353 191q69 56 171.5 56t171.5 -56q36 -28 51 -58q4 -9 1 -19t-12.5 -14.5t-19 -1.5t-14.5 13q-2 4 -8 11q-12 17 -29 30q-56 45 -140.5 45t-140.5 -45q-17 -13 -29 -30
q-6 -7 -8 -11q-5 -10 -14.5 -13t-19 1.5t-12.5 14.5t1 19q15 30 51 58z" />
    <glyph glyph-name="delete" unicode="&#xe69d;" 
d="M973 687q11 0 18.5 7.5t7.5 18.5t-7.5 18.5t-18.5 7.5l-941 2q-10 0 -18 -8t-8 -19t8 -18.5t18 -7.5zM180 -96v-27h27l626 7h26v26v697q0 11 -7.5 18.5t-18.5 7.5t-18.5 -7.5t-7.5 -18.5v-697l26 27l-627 -7l27 -26v709q0 11 -7.5 19t-18.5 8t-19 -8t-8 -19v-709zM656 49
q0 -11 8 -18.5t19 -7.5t18.5 7.5t7.5 18.5v475q0 11 -7.5 18.5t-18.5 7.5t-19 -7.5t-8 -18.5v-475zM341 49q0 -11 8 -18.5t18.5 -7.5t18.5 7.5t8 18.5v475q0 11 -8 18.5t-18.5 7.5t-18.5 -7.5t-8 -18.5v-475zM499 49q0 -11 7.5 -18.5t18.5 -7.5t18.5 7.5t7.5 18.5v475
q0 11 -7.5 18.5t-18.5 7.5t-18.5 -7.5t-7.5 -18.5v-475zM392 779q0 11 7.5 19t18.5 8h205q11 0 18.5 -8t7.5 -19v-55h53v55q0 33 -23 56t-56 23h-205q-32 0 -55 -23t-23 -56v-48h52v48z" />
    <glyph glyph-name="information" unicode="&#xe6a4;" 
d="M1024 384q0 139 -68.5 257t-186.5 186.5t-257 68.5t-257 -68.5t-186.5 -186.5t-68.5 -257t68.5 -257t186.5 -186.5t257 -68.5q179 0 319 111q8 7 9 17t-5.5 18.5t-16.5 9.5t-18 -6q-126 -100 -288 -100q-94 0 -179.5 36.5t-147.5 98.5t-98.5 147.5t-36.5 179.5
t36.5 179.5t98.5 147.5t147.5 98.5t179.5 36.5t179.5 -36.5t147.5 -98.5t98.5 -147.5t36.5 -179.5q0 -132 -70 -244q-5 -9 -2.5 -19t11 -15.5t18.5 -3t16 11.5q77 123 77 270zM500 153q0 -10 7 -17.5t17.5 -7.5t17.5 7.5t7 17.5v318q0 11 -7 18t-17.5 7t-17.5 -7t-7 -18
v-318zM500 578q0 -11 7 -18t17.5 -7t17.5 7t7 18v43q0 11 -7 18t-17.5 7t-17.5 -7t-7 -18v-43z" />
    <glyph glyph-name="less" unicode="&#xe6a5;" 
d="M510 509q12 14 25 0l270 -310q6 -6 15 -7t15.5 5t7 15t-5.5 15l-270 310q-18 20 -44 20.5t-45 -20.5l-280 -309q-6 -7 -6 -16t7 -14.5t15.5 -5.5t14.5 7z" />
    <glyph glyph-name="moreunfold" unicode="&#xe6a6;" 
d="M478 252q19 -20 45 -20t44 21l270 309q6 7 5.5 15.5t-7 14.5t-15.5 5.5t-15 -7.5l-270 -309q-13 -14 -25 -1l-281 310q-6 7 -14.5 7.5t-15.5 -5.5t-7 -15t6 -15z" />
    <glyph glyph-name="more" unicode="&#xe6a7;" 
d="M642 391q14 -12 0 -24l-309 -271q-7 -6 -7.5 -14.5t5 -15.5t14.5 -7.5t16 5.5l309 271q21 18 21 44t-20 44l-310 281q-7 6 -15.5 5.5t-14.5 -7t-5.5 -15.5t6.5 -15z" />
    <glyph glyph-name="pic" unicode="&#xe6a8;" 
d="M475 320l-35 -4l228 -144l16 -11l15 12l313 231l12 9v14v260q0 60 -41.5 102.5t-100.5 42.5h-854h-28v-29v-722q0 -60 41.5 -102.5t100.5 -42.5h854h28v29v260q0 12 -8.5 20.5t-20 8.5t-20 -8.5t-8.5 -20.5v-260l29 29h-854q-35 0 -60 25.5t-25 61.5v722l-29 -29h854
q35 0 60 -25.5t25 -61.5v-260l12 24l-313 -231l32 1l-228 144l-19 12l-16 -16l-228 -231q-8 -9 -8 -21t8.5 -20t20 -8t20.5 8zM341 557.5q0 41.5 -29 71.5t-70 30t-70.5 -30t-29.5 -71.5t29.5 -71.5t70.5 -30t70 30t29 71.5zM199 557q0 18 12.5 31t30 13t30 -13t12.5 -31
t-12.5 -30.5t-30 -12.5t-30 12.5t-12.5 30.5z" />
    <glyph glyph-name="search" unicode="&#xe6ac;" 
d="M1002 -96q-2 5 -3 7l-4 6q-3 4 -10 11q-10 12 -31 34q-26 27 -96 98q-69 70 -95 97q-20 21 -30 32q-5 6 -7 8q1 -1 3 -5q1 -6 0 -9t-7 -16q62 60 95.5 139.5t33.5 167.5q0 114 -55.5 211.5t-151 154t-208 56.5t-208.5 -56.5t-151.5 -154t-55.5 -212t55.5 -212t151.5 -154
t208 -56.5q8 0 16 1q5 0 15 1q17 2 23 2q13 0 47 10l8 2q13 3 26 7q7 3 11 4q10 3 15 12.5t2 19.5t-12.5 15t-19.5 2q-4 -2 -11 -4q-13 -4 -24 -7l-8 -2q-28 -8 -34 -8q-9 0 -28 -2q-9 -1 -13 -1q-7 -1 -13 -1q-99 0 -183 50t-132.5 135.5t-48.5 186t48.5 186t132.5 135.5
t183 50t183 -50t133 -135.5t49 -185.5q0 -78 -29.5 -147.5t-84.5 -122.5q-7 -13 -8 -16.5t1 -9.5q2 -4 3 -7q1 -2 4 -5q3 -5 9 -11q11 -12 31 -34q26 -27 95.5 -97.5t95.5 -97.5q20 -21 30 -32q5 -6 7 -8q-1 2 -2 6q-2 6 -1 9t9 16q-8 -7 -9 -17.5t6 -18.5t17 -9t18 6
q8 13 9 16.5t0 9.5z" />
    <glyph glyph-name="viewgallery" unicode="&#xe6b4;" 
d="M147 846h202q31 0 53 -22t22 -53v-224q0 -32 -22 -54t-53 -22h-202q-31 0 -53 22t-22 54v224q0 31 22 53t53 22zM21 547q0 -52 37 -89t89 -37h202q52 0 88.5 37t36.5 89v224q0 52 -36.5 88.5t-88.5 36.5h-202q-52 0 -89 -36.5t-37 -88.5v-224zM675 846h202q31 0 53 -22
t22 -53v-224q0 -32 -22 -54t-53 -22h-202q-31 0 -53 22t-22 54v224q0 31 22 53t53 22zM550 547q0 -52 36.5 -89t88.5 -37h202q52 0 89 37t37 89v224q0 52 -37 88.5t-89 36.5h-202q-52 0 -88.5 -36.5t-36.5 -88.5v-224zM147 297h202q31 0 53 -22t22 -54v-224q0 -31 -22 -53
t-53 -22h-202q-31 0 -53 22t-22 53v224q0 32 22 54t53 22zM21 -3q0 -52 37 -88.5t89 -36.5h202q52 0 88.5 36.5t36.5 88.5v224q0 52 -36.5 89t-88.5 37h-202q-52 0 -89 -37t-37 -89v-224zM875 -78h-7h-23h-69h-101q-31 0 -53 22t-22 53v224q0 32 22 54t53 22h202
q31 0 53 -22t22 -53v-195v-30q0 -10 7.5 -17.5t18 -7.5t18 7.5t7.5 17.5v30v195q0 51 -37 88t-89 37h-202q-52 0 -88.5 -37t-36.5 -89v-224q0 -52 36.5 -88.5t88.5 -36.5h101h69h23h7h1q11 0 18.5 7.5t7.5 17.5t-7.5 17.5t-17.5 7.5h-2z" />
    <glyph glyph-name="viewlist" unicode="&#xe6b6;" 
d="M147 846h200q31 0 53 -22t22 -53v-224q0 -32 -22 -54t-53 -22h-200q-32 0 -54 22t-22 54v224q0 31 22 53t54 22zM21 547q0 -52 37 -89t89 -37h200q52 0 89 37t37 89v224q0 52 -37 88.5t-89 36.5h-200q-52 0 -89 -36.5t-37 -88.5v-224zM147 297h200q31 0 53 -22t22 -54
v-224q0 -31 -22 -53t-53 -22h-200q-32 0 -54 22t-22 53v224q0 32 22 54t54 22zM21 -3q0 -52 37 -88.5t89 -36.5h200q52 0 89 36.5t37 88.5v224q0 52 -37 89t-89 37h-200q-52 0 -89 -37t-37 -89v-224zM999 746q10 0 17.5 7.5t7.5 17.5t-7.5 17.5t-17.5 7.5h-426
q-11 0 -18 -7.5t-7 -17.5t7 -17.5t18 -7.5h426zM999 621q10 0 17.5 7.5t7.5 18t-7.5 17.5t-17.5 7h-426q-11 0 -18 -7t-7 -17.5t7 -18t18 -7.5h426zM999 496q10 0 17.5 7.5t7.5 18t-7.5 17.5t-17.5 7h-426q-11 0 -18 -7t-7 -17.5t7 -18t18 -7.5h426zM999 222q10 0 17.5 7
t7.5 17.5t-7.5 18t-17.5 7.5h-426q-11 0 -18 -7.5t-7 -18t7 -17.5t18 -7h426zM999 97q10 0 17.5 7t7.5 17.5t-7.5 18t-17.5 7.5h-426q-11 0 -18 -7.5t-7 -18t7 -17.5t18 -7h426zM999 -28q10 0 17.5 7.5t7.5 17.5t-7.5 17.5t-17.5 7.5h-426q-11 0 -18 -7.5t-7 -17.5t7 -17.5
t18 -7.5h426z" />
    <glyph glyph-name="account" unicode="&#xe6b8;" 
d="M794 579q0 122 -86.5 209t-208.5 87t-208 -87t-86 -209t86 -209t208 -87t208.5 87t86.5 209zM256 579q0 101 71 172.5t172 71.5t172 -71.5t71 -172.5t-71 -172.5t-172 -71.5t-172 71.5t-71 172.5zM0 -102v-26h26h460h512h26v26q0 85 -41.5 165.5t-111 140t-164 95.5
t-195.5 36q-25 0 -49 -2q-7 -1 6 -9q17 -11 17 -19q8 1 13 -10.5t13 -11.5q91 0 176.5 -32t147.5 -85t99.5 -123.5t37.5 -144.5l25 25h-512h-460l25 -25q0 102 60 190t164 141q10 4 13 14.5t-1.5 20t-14.5 12.5t-20 -1q-116 -59 -184 -159.5t-68 -217.5z" />
    <glyph glyph-name="dingdan1" unicode="&#xe600;" 
d="M792 637h-84v56h-75q-19 25 -51 40.5t-70 15.5t-70 -15.5t-51 -40.5h-75v-56h-84q-46 0 -79 -33t-33 -79v-560q0 -47 33 -79.5t79 -32.5h560q46 0 79 32.5t33 79.5v560q0 46 -33 79t-79 33zM372 637h62q0 23 23 39.5t55 16.5t55 -16.5t23 -39.5h62v-112h-280v112z
M848 -35q0 -24 -16.5 -40t-39.5 -16h-560q-23 0 -39.5 16t-16.5 40v560q0 23 16.5 39.5t39.5 16.5h84v-112h392v112h84q23 0 39.5 -16.5t16.5 -39.5v-560zM708 77h-392q-12 0 -20 -8.5t-8 -20t8 -19.5t20 -8h392q12 0 20 8t8 19.5t-8 20t-20 8.5zM708 357h-392
q-12 0 -20 -8.5t-8 -20t8 -19.5t20 -8h392q12 0 20 8t8 19.5t-8 20t-20 8.5zM708 217h-392q-12 0 -20 -8.5t-8 -20t8 -19.5t20 -8h392q12 0 20 8t8 19.5t-8 20t-20 8.5z" />
    <glyph glyph-name="remind" unicode="&#xe6bc;" 
d="M0 461v-175q0 -26 18.5 -45t45.5 -19h165l-15 6l255 -256q23 -22 45 -13t22 41v747q0 32 -22 41t-45 -14l-255 -256l15 7h-165q-27 0 -45.5 -19t-18.5 -45zM229 482h9l6 6l255 256q3 3 5 4q-3 -1 -7 0.5t-5 4.5q1 -2 1 -6v-747q0 -4 -1 -6q1 3 5 4.5t7 0.5q-2 0 -5 3
l-255 256l-6 7h-9h-165q-9 0 -15 6t-6 15v175q0 9 6 15t15 6h165zM821 360.5q0 89.5 -59.5 153t-143.5 63.5q-9 0 -15 -6.5t-6 -15.5t6 -15t15 -6q66 0 113 -51t47 -123t-47 -122.5t-113 -50.5q-9 0 -15 -6.5t-6 -15.5t6 -15t15 -6q84 0 143.5 63.5t59.5 153zM1003 369
q0 117 -67.5 215t-179.5 147q-8 3 -16 0t-11.5 -11t-0.5 -16.5t11 -11.5q101 -44 161 -131.5t60 -191.5q0 -100 -54.5 -184t-147.5 -131q-8 -4 -10.5 -12t1.5 -16t12 -11t16 1q104 52 165 146.5t61 206.5z" />
    <glyph glyph-name="xiaoxi" unicode="&#xe649;" 
d="M512 -84h-85l-235 -128v235q-90 63 -141 150.5t-51 190.5q0 91 40.5 174t109 143t163.5 95.5t199 35.5t199 -35.5t163.5 -95.5t109 -143t40.5 -174t-40.5 -174t-109 -143t-163.5 -95.5t-199 -35.5v0zM512 748q-122 0 -225 -51.5t-163 -140t-60 -192.5q0 -96 52 -181.5
t140 -138.5v-142l171 78h85q122 0 225 51.5t163 140t60 192.5t-60 192.5t-163 140t-225 51.5v0zM768 300q-27 0 -45.5 19t-18.5 45.5t18.5 45t45.5 18.5t45.5 -18.5t18.5 -45t-18.5 -45.5t-45.5 -19v0zM512 300q-27 0 -45.5 19t-18.5 45.5t18.5 45t45.5 18.5t45.5 -18.5
t18.5 -45t-18.5 -45.5t-45.5 -19v0zM256 300q-27 0 -45.5 19t-18.5 45.5t18.5 45t45.5 18.5t45.5 -18.5t18.5 -45.5t-18.5 -45.5t-45.5 -18.5v0z" />
    <glyph glyph-name="gouwu" unicode="&#xe609;" 
d="M894 885h-764q-40 0 -69 -28.5t-29 -69.5v-763q0 -41 29 -70t69 -29h764q40 0 69 29t29 70v763q0 41 -29 69.5t-69 28.5zM944 24q0 -21 -14.5 -36t-35.5 -15h-764q-21 0 -35.5 15t-14.5 36v763q0 21 14.5 36t35.5 15h764q21 0 35.5 -15t14.5 -36v-763zM784 698
q-19 0 -32.5 -13.5t-13.5 -32.5q0 -21 17 -35l2 -2v-3q-15 -91 -84 -150t-161 -59t-161 59t-84 150v3l2 2q17 14 17 35q0 19 -13.5 32.5t-32.5 13.5t-32.5 -13.5t-13.5 -32.5q0 -26 23 -39l2 -2l1 -2q15 -108 99 -180.5t193 -72.5t193 72.5t99 180.5l1 2l2 2q23 13 23 39
q0 19 -13.5 32.5t-32.5 13.5z" />
    <glyph glyph-name="icon" unicode="&#xe618;" 
d="M956 -41v-86h-889v859h85v-773h804zM923 642v-243q0 -12 -8.5 -16.5t-15.5 4.5l-54 67l-284 -353q-4 -6 -10 -6t-10 6l-105 130l-186 -232l-86 107l262 327q5 5 10.5 5t10.5 -5l104 -131l208 260l-55 67q-7 9 -3 20t13 11h195q6 0 10 -5t4 -13z" />
    <glyph glyph-name="guanbi" unicode="&#xe621;" 
d="M512 812q-139 0 -257 -68.5t-186.5 -186.5t-68.5 -257t68.5 -257t186.5 -186.5t257 -68.5t257 68.5t186.5 186.5t68.5 257t-68.5 257t-186.5 186.5t-257 68.5zM731 121l-40 -40l-179 179l-179 -179l-40 40l179 179l-179 179l40 40l179 -179l179 179l40 -40l-179 -179z
" />
    <glyph glyph-name="jia" unicode="&#xe620;" 
d="M0 812v-1024h1024v1024h-1024zM759 257h-204v-204h-69v204h-204v69h204v204h69v-204h204v-69z" />
    <glyph glyph-name="discount" unicode="&#xe6c5;" 
d="M856 335l-399 -372q-22 -21 -54 -21t-54 22l-262 254q-22 21 -22 51t21 52l480 491l-17 -7h329q30 0 51.5 -21.5t21.5 -52.5v-317q0 -10 7 -17t17 -7t17.5 7t7.5 17v317q0 51 -36 86.5t-86 35.5h-329q-11 0 -18 -7l-480 -491q-35 -36 -34.5 -86.5t36.5 -85.5l262 -254
q36 -35 87.5 -35.5t87.5 33.5l399 372q8 7 8 17t-7 17.5t-17 7.5t-17 -6v0zM744 488q45 0 77 32t32 77.5t-32 77.5t-77.5 32t-77.5 -32t-32 -77.5t32 -77.5t78 -32v0zM744 536q-26 0 -43.5 18t-17.5 43.5t17.5 43t43 17.5t43.5 -17.5t18 -43t-18 -43.5t-43 -18v0z" />
    <glyph glyph-name="gear" unicode="&#xe622;" 
d="M619 -129h-174l-17 105q-20 5 -38 13q-14 6 -27 12l-86 -63l-123 123l60 83q-20 34 -31 68l-104 16v174l101 15q4 14 15 41l1 1q6 16 14 31l-59 79l123 124l78 -58q36 20 74 31l15 97h174l15 -97q18 -5 35 -12q19 -8 37 -18l80 59l123 -123l-60 -82q18 -33 28 -69
l103 -15v-174l-104 -16q-5 -17 -12 -32q-7 -17 -15 -33l63 -87l-123 -123l-87 64q-30 -17 -63 -27zM497 -68h69l15 95l19 5q45 11 84 35l18 11l77 -56l48 48l-56 77l11 18q12 20 21 42q9 21 15 43l4 20l93 14v69l-92 14l-4 20q-11 48 -36 89l-11 18l53 72l-49 48l-71 -52
l-18 11q-22 14 -45 24q-23 9 -47 15l-20 5l-13 85h-68l-14 -86l-20 -4q-49 -12 -93 -39l-18 -12l-68 51l-49 -49l51 -70l-10 -17q-12 -20 -21 -41v-1q-15 -35 -18 -51l-5 -21l-88 -13v-68l91 -14l5 -20q11 -44 39 -88l12 -17l-54 -74l49 -49l76 55l17 -10q18 -10 38 -18
q23 -10 48 -16l21 -4zM527.5 107q-86.5 0 -148 61.5t-61.5 148t61.5 148t148 61.5t148 -61.5t61.5 -148t-61.5 -148t-148 -61.5zM527.5 465q-61.5 0 -105 -43.5t-43.5 -105t43.5 -105t105 -43.5t105 43.5t43.5 105t-43.5 105t-105 43.5z" />
    <glyph glyph-name="weixiu" unicode="&#xe6d7;" 
d="M909 58q-59 87 -235 276q27 31 52 73l4 6q23 33 12 63q-7 19 -29 41l233 253l-37 35l-235 -254q-27 22 -61 14q-25 -5 -57 -29v-1q-16 -12 -42 -35q-11 11 -20 21q21 42 23 90q3 92 -59.5 160t-154.5 72h-9q-40 0 -77 -14l-36 -13l151 -163l-65 -59l-152 164l-17 -31
q-24 -46 -26 -98q-4 -92 58.5 -159.5t154.5 -71.5h9v0q38 0 73 12q5 -7 15 -19q-89 -84 -172 -166.5t-104 -108.5q-16 -20 -17 -43t6 -38.5t17 -26.5q61 -70 95 -89q29 -17 58 -17q8 0 17 1q31 6 53 30q86 79 215 248q132 -164 186 -223h-1l21 -21q33 -34 67 -37h9
q35 0 63 23q31 26 34 66q4 37 -19 68l-1 1v0zM587 495q18 14 30.5 18t16.5 3t9 -5q45 -36 51 -53q2 -5 -5 -16q-2 -2 -6 -9q-22 -36 -44 -62q-43 45 -89 93q23 20 37 31zM294 448q-3 0 -7 1q-71 3 -119.5 55t-45.5 123q1 21 7 41l109 -118q12 -13 28 -13q15 0 26 11l84 77
q11 11 12 26.5t-10 26.5l-104 113q13 2 27 1q71 -3 119.5 -55.5t45.5 -123.5q-3 -69 -52.5 -117t-119.5 -48zM300 -31l-1 -1q-27 -29 -66 -5q-27 15 -83 79v0q-6 7 -9 16q-5 14 5 27q18 22 97 100.5t171 165.5q53 -68 103 -129q-132 -174 -217 -253zM879 -7
q-2 -19 -17 -31.5t-34 -10.5q-10 1 -27 14l-7 7v0l-380 461q18 11 34 27q9 8 17 18q318 -323 403 -450l4 -6q8 -14 7 -29v0z" />
    <glyph glyph-name="jianhao" unicode="&#xe648;" 
d="M509 832q-92 0 -175 -35.5t-143 -96t-95.5 -143.5t-35.5 -174t35.5 -174t95.5 -143.5t143 -96t174.5 -35.5t174.5 35.5t143 96t95.5 143.5t35.5 174t-35.5 174t-95.5 143.5t-143 96t-174 35.5v0zM509 -19q-109 0 -201.5 54t-146.5 146.5t-54 201.5t54 201.5t146.5 146
t201 53.5t201 -53.5t146.5 -146t54 -201.5t-54 -201.5t-146.5 -146.5t-200.5 -54v0zM678 415h-339q-9 0 -16 -10.5t-7 -21t7 -21t16 -10.5h339q9 0 16 10.5t7 21t-7 21t-16 10.5v0zM678 415z" />
    <glyph glyph-name="xitongerweima" unicode="&#xe8ef;" 
d="M139 631q0 12 8 20.5t20 8.5h247q12 0 20 -8.5t8 -20.5v-239q0 -12 -8 -20t-20 -8h-247q-12 0 -20 8.5t-8 19.5v239v0zM82 631v-239q0 -35 25 -60t60 -25h247q35 0 60 25t25 60v239q0 36 -25 60.5t-60 24.5h-247q-35 0 -60 -24.5t-25 -60.5v0zM572 631q0 12 8.5 20.5
t20.5 8.5h246q12 0 20.5 -8.5t8.5 -20.5v-239q0 -12 -8.5 -20t-20.5 -8h-246q-12 0 -20.5 8.5t-8.5 19.5v239v0zM515 631v-239q0 -35 25 -60t61 -25h246q35 0 60.5 25t25.5 60v239q0 36 -25.5 60.5t-60.5 24.5h-246q-36 0 -61 -24.5t-25 -60.5v0zM730 508q0 -2 -2 -2t-2 2
q0 1 0.5 1.5t1.5 0.5q2 0 2 -2v0zM673 508q0 -23 16 -39t39 -16t39 16t16 39t-16 39t-39 16t-39 -16t-16 -39v0zM282 508q0 -1 -0.5 -1.5t-1.5 -0.5q-2 0 -2 2q0 1 0.5 1.5t1.5 0.5q2 0 2 -2v0zM225 508q0 -23 16 -39t39 -16t39 16t16 39t-16 39t-39 16t-39 -16t-16 -39v0z
M282 86q0 -2 -2 -2t-2 2t2 2t2 -2v0zM225 86q0 -23 16 -39t39 -16t39 16t16 39t-16 39t-39 16t-39 -16t-16 -39v0zM139 198q0 11 8 19.5t20 8.5h247q12 0 20 -8.5t8 -19.5v-240q0 -11 -8 -19.5t-20 -8.5h-247q-12 0 -20 8.5t-8 19.5v240v0zM82 198v-240q0 -35 25 -60t60 -25
h247q35 0 60 25t25 60v240q0 35 -25 60t-60 25h-247q-35 0 -60 -25t-25 -60v0zM649 -70h-27h-26q-10 0 -17 7t-7 18v246q0 11 7 18t17 7h53q10 0 17 -7t7 -17v-97q0 -12 8.5 -20.5t20 -8.5t20 8.5t8.5 20.5v97q0 33 -23.5 57t-57.5 24h-53q-33 0 -57 -24t-24 -58v-246
q0 -34 24 -58t57 -24h26h27q12 0 20 8.5t8 20.5t-8 20t-20 8v0zM853 47v-119q0 -12 8.5 -20t20.5 -8t20 8t8 20v119q0 11 -8 19.5t-20 8.5t-20.5 -8.5t-8.5 -19.5v0zM860 190q0 -3 -2.5 -3t-2.5 2.5t2.5 2.5t2.5 -2v0zM803 190q0 -23 16 -39t38.5 -16t38.5 16t16 38.5
t-16 38.5t-38.5 16t-38.5 -16t-16 -38v0zM713 -70h158q11 0 19.5 8.5t8.5 20t-8.5 20t-19.5 8.5h-158q-12 0 -20.5 -8.5t-8.5 -20t8.5 -20t20.5 -8.5v0zM557 44h65q12 0 20.5 8.5t8.5 20t-8.5 20t-20.5 8.5h-65q-12 0 -20.5 -8.5t-8.5 -20t8.5 -20t20.5 -8.5v0z" />
    <glyph glyph-name="bangzhu" unicode="&#xe610;" 
d="M989 359q0 92 -38 175t-102 143.5t-152 96t-185 35.5t-185 -35.5t-152 -96t-102 -143.5t-38 -174.5t38 -175t102 -143.5t152 -95.5t185 -35.5q61 0 124 15l195 -134l-14 223q80 63 126 153t46 192zM582 82l-35 -34h-79l-25 25v70l15 25h93l31 -30v-56v0zM713 432
q-4 -3 -9.5 -8t-22.5 -20t-32.5 -29.5t-34.5 -33t-32.5 -33t-23 -27.5t-9.5 -20v-32h-91v102l144 131v67q-2 3 -6 8.5t-18 17t-29 17.5t-39.5 2.5t-50.5 -20.5q-5 -4 -13 -12t-24.5 -37t-22.5 -62q-2 -2 -6 -4t-16 -6t-22 -6t-22.5 0t-20.5 9.5t-12 24.5t-1 43q2 5 5.5 13.5
t17 31t30.5 41.5t45 38.5t61 27.5h116q5 -1 13 -4t29.5 -14t39 -24.5t34.5 -36.5t23 -50v-95z" />
    <glyph glyph-name="filter" unicode="&#xe6f1;" 
d="M1024 776.5q0 -49.5 -35 -84.5l-323 -308v-486q0 -11 -7.5 -18.5t-18.5 -7.5t-18.5 7.5t-7.5 18.5v497q0 12 8 19l331 315q20 19 20 47.5t-20 48.5t-49 20h-784q-29 0 -49 -20t-20 -49q0 -28 20 -48l305 -315q8 -7 8 -18v-369q0 -11 -7.5 -18.5t-18 -7.5t-18 7.5
t-7.5 18.5v358l-298 308q-35 35 -35 84.5t35 84.5t85 35h784q50 0 85 -35t35 -84.5z" />
    <glyph glyph-name="jiahao" unicode="&#xe639;" 
d="M511 828q-90 0 -173 -35.5t-143 -95.5t-95.5 -142.5t-35.5 -173.5t35.5 -173.5t95.5 -142.5t143 -95.5t173.5 -35.5t173.5 35.5t142.5 95.5t95 142.5t35.5 173.5t-35.5 173.5t-95 142.5t-142.5 95.5t-174 35.5v0zM511 -19q-108 0 -200 53.5t-145.5 145.5t-53.5 200.5
t53.5 200.5t145.5 146t200.5 54t200.5 -54t145.5 -146t53.5 -200.5t-53.5 -200.5t-145.5 -145.5t-201 -53.5v0zM680 413h-137v136q0 10 -10.5 17t-21 7t-21 -7t-10.5 -17v-136h-137q-9 0 -16.5 -10.5t-7.5 -21t7.5 -21t16.5 -10.5h137v-138q0 -9 10.5 -16t21 -7t21 7
t10.5 16v138h137q9 0 16 10.5t7 21t-7 21t-16 10.5v0zM680 413z" />
    <glyph glyph-name="Partner_05" unicode="&#xe611;" 
d="M311 -121q0 -43 30 -73t73 -30t73 30t30 73v0q0 43 -30 73t-73 30t-73 -30t-30 -73zM697 -121q0 -43 30 -73t73 -30t73 30t30 73t-30 73t-73 30t-73 -30t-30 -73zM266 597v0l-32 135q-10 21 -27 27l-139 40q-13 3 -27.5 -5t-21.5 -22q-4 -17 3.5 -31.5t23.5 -17.5
l117 -32l134 -619q8 -31 41 -31h547v0q17 0 28.5 11.5t11.5 28.5t-11.5 29t-28.5 12h-516l-18 76h570q13 0 22 9t9 22l54 287z" />
    <glyph glyph-name="fabu" unicode="&#xe616;" horiz-adv-x="1716" 
d="M1446 362q0 5 0.5 14t-1 36.5t-6 55t-15.5 65.5t-28 71t-45.5 68.5t-65 62t-90.5 47t-118 27.5q-70 7 -133 -4.5t-106.5 -32.5t-81.5 -52t-60 -58t-39.5 -56.5t-22 -40.5t-6.5 -17v0q-4 4 -12 9.5t-33.5 17.5t-52.5 17t-67 -0.5t-79 -26.5q-100 -57 -105 -169l1 -33v0
q-6 -1 -16 -3.5t-39 -12.5t-55.5 -23.5t-58.5 -39t-55 -56t-39 -77t-16 -99.5q1 -53 19 -96.5t43 -70t60 -46.5t63.5 -29t59 -14.5t41.5 -6.5t17 -1v0h468v273h-147l247 245l248 -245h-148v-273h426q5 0 15 0.5t39.5 5.5t57 13.5t62.5 27t62 44t49 66.5t30 92
q13 185 -152 280q-60 34 -115 45v0z" />
    <glyph glyph-name="xiaoxi1" unicode="&#xe619;" 
d="M595 668q0 32 -24.5 55.5t-58.5 23.5t-58.5 -23t-24.5 -56q0 -7 1 -14q-88 -29 -148 -111t-60 -183v-110v-5.5t-0.5 -14l-1 -21t-2 -25t-3.5 -26.5t-5 -24.5t-7 -21.5t-9.5 -14.5t-12.5 -6.5q-18 0 -30 -11.5t-12 -28t12 -28t29 -11.5h664q17 0 29 11.5t12 28t-12 28
t-29 11.5q-19 0 -29 39.5t-12 79.5l-1 39v111q0 103 -58.5 184.5t-149.5 110.5q1 6 1 13zM636 -28q0 -49 -36 -84t-88 -35q-51 0 -87.5 35t-36.5 84h248z" />
    <glyph glyph-name="user" unicode="&#xe694;" 
d="M512 752q-94 0 -179.5 -36.5t-147 -98t-98 -147t-36.5 -179t36.5 -179t98 -147.5t147 -98.5t179.5 -36.5t179.5 36.5t147 98.5t98 147.5t36.5 179t-36.5 179t-98 147t-147 98t-179.5 36.5zM769 -17q-13 6 -72.5 22.5t-71.5 23.5q-17 11 -17 105l17 15q5 41 12.5 55.5
t16 36t13.5 36.5l5 14q18 13 18 35q0 10 -4.5 19t-8.5 12l-5 4q7 62 7 105q0 68 -41 104t-118 36q-80 0 -128 -35t-48 -105q0 -19 3.5 -45t6.5 -43l4 -17q-18 -12 -18 -35q0 -10 4.5 -18.5t8.5 -12.5l5 -4q20 -63 35 -87q2 -4 4 -11t3.5 -14.5t2.5 -14t1 -10.5l1 -5l17 -15
q1 -10 1.5 -25t-3.5 -44t-15 -36q-12 -7 -73.5 -24t-73.5 -24q5 -5 22 -17.5t61 -34t91 -31.5q-139 28 -230.5 138.5t-91.5 254.5q0 110 54 202.5t146.5 146t201.5 53.5t201.5 -53.5t146.5 -146t54 -202.5q0 -91 -38.5 -171.5t-106.5 -136.5z" />
    <glyph glyph-name="gongxiangshichanglirun" unicode="&#xe6a3;" 
d="M963 -180v659h-178v-659h-62v359h-178v-359h-66v458h-178v-458h-56v215h-178v-215h-53v-24h53h178h56h178h66h178h62h178h47v24h-47v0zM91 -180v191h131v-191h-131zM325 -180v434h131v-434h-131v0zM568 -180v335h131v-335h-131v0zM809 -180v635h130v-635h-130v0z
M144.5 265q24.5 0 42 17t17.5 42q0 15 -9 29l167 145q15 -11 34 -11q35 0 52 32l148 -69v-9q0 -24 17 -41.5t41.5 -17.5t41.5 17.5t17 41.5q0 19 -10 34l179 216q11 -5 24 -5q24 0 41.5 17t17.5 41.5t-17.5 42t-42 17.5t-41.5 -17.5t-17 -41.5q0 -23 15 -40l-177 -214
q-14 9 -30 9q-33 0 -51 -28l-150 70q0 1 0.5 2t0.5 2q0 24 -17.5 41.5t-42 17.5t-41.5 -17.5t-17 -41.5q0 -17 9 -31l-166 -144q-16 12 -35 12q-25 0 -42 -17.5t-17 -42t17 -41.5t41.5 -17zM905.5 780q14.5 0 25 -10.5t10.5 -25t-10.5 -25t-25 -10.5t-25 10.5t-10.5 25
t10.5 25t25 10.5zM654.5 476q14.5 0 25 -10t10.5 -24.5t-10.5 -25t-25 -10.5t-25 10.5t-10.5 25t10.5 24.5t25 10zM395.5 581q14.5 0 25 -10.5t10.5 -25t-10.5 -24.5t-25 -10t-25 10t-10.5 24.5t10.5 25t25 10.5zM144.5 359q14.5 0 25 -10.5t10.5 -25t-10.5 -25t-25 -10.5
t-25 10.5t-10.5 25t10.5 25t25 10.5z" />
    <glyph glyph-name="dianpu1" unicode="&#xe62d;" 
d="M576 27h20v-4h-20v4zM664 48h5v-16h-5v16zM433 40h-15h-1q3 -4 8 -6q5 3 8 6zM443 48h-37v-37h37v37zM435 12q-11 3 -24 4l1 4q13 -2 25 -4zM417 23l1 3q7 -1 15 -2l-1 -4q-8 2 -15 3zM440 26q-9 2 -15 4q-6 -2 -16 -5q-1 2 -2 3q9 2 14 4l-6 6l-5 -5q-1 1 -2 3
q7 5 11 12l3 -2q-1 -1 -2 -3h18v-3q-4 -4 -9 -8q5 -1 13 -3q-1 -2 -2 -3zM680 49h5v-17h-5v17zM576 20h20v-3h-20v3zM847 195q-37 0 -67.5 20.5t-44.5 54.5q-14 -34 -44 -54.5t-67.5 -20.5t-67.5 20.5t-44 54.5q-13 -34 -44 -54.5t-68 -20.5q-38 0 -68 20.5t-44 54.5
q-13 -34 -43.5 -54.5t-68.5 -20.5q-18 0 -35 5v-248q0 -17 16 -34t33 -17h643q17 0 33 17t16 34v248q-17 -5 -35 -5zM880 587h-739l-77 -201q0 -45 32.5 -77.5t78.5 -32.5t79.5 32t33.5 78q0 -45 32.5 -77.5t78.5 -32.5t79.5 32t33.5 78q0 -45 32.5 -77.5t78.5 -32.5
t78.5 32t32.5 78q0 -45 33 -77.5t80 -32.5q46 0 79 32t33 78l-79 201v0zM844 588v0l3 -1zM192 621h639q17 0 28 11t11 27.5t-11 27.5t-28 11h-639q-17 0 -28 -11t-11 -27.5t11 -27.5t28 -11v0z" />
    <glyph glyph-name="huoche" unicode="&#xe608;" 
d="M574 25h-224v18q0 35 -25 60t-60 25t-60 -25t-25 -60v-18h-121q-24 0 -41.5 17t-17.5 42v535q0 24 17.5 41.5t41.5 17.5h515q24 0 41.5 -17.5t17.5 -41.5v-535q0 -25 -17.5 -42t-41.5 -17v0zM384 61h190q9 0 16 6.5t7 16.5v535q0 10 -7 16.5t-16 6.5h-515
q-10 0 -16.5 -6.5t-6.5 -16.5v-535q0 -10 6.5 -16.5t16.5 -6.5h86q7 43 41 72.5t79 29.5t79 -29.5t40 -72.5v0zM965 25h-80v18q0 35 -25 60t-60 25t-60 -25t-25 -60v-18h-59q-24 0 -41.5 17t-17.5 42v391q0 24 17.5 41.5t41.5 17.5h175q20 0 54 -33q28 -26 60 -66
q33 -40 54 -74q25 -41 25 -61v-216q0 -25 -17.5 -42t-41.5 -17v0zM920 61h45q10 0 16.5 6.5t6.5 16.5v216q0 10 -18.5 40.5t-48.5 68.5q-30 36 -56 62q-25 24 -35 27h-174q-10 0 -16.5 -6.5t-6.5 -16.5v-391q0 -10 6.5 -16.5t16.5 -6.5h25q6 43 40 72.5t79 29.5t79 -29.5
t41 -72.5v0zM1024 251h-244q-25 0 -42 17.5t-17 41.5v83q0 24 17 41.5t42 17.5h152l5 -7q87 -104 87 -145v-49v0zM780 416q-10 0 -17 -7t-7 -16v-83q0 -9 7 -16t17 -7h208v13q0 11 -22 47q-21 32 -51 69h-135v0zM800 -78q-50 0 -85.5 35.5t-35.5 85.5t35.5 85t85.5 35
t85.5 -35t35.5 -85t-35.5 -85.5t-85.5 -35.5v0zM800 128q-35 0 -60 -25t-25 -60t25 -60t60 -25t60 25t25 60t-25 60t-60 25v0zM265 -78q-50 0 -85.5 35.5t-35.5 85.5t35.5 85t85.5 35t85.5 -35t35.5 -85t-35.5 -85.5t-85.5 -35.5v0zM265 128q-35 0 -60 -25t-25 -60t25 -60
t60 -25t60 25t25 60t-25 60t-60 25v0zM265 128z" />
    <glyph glyph-name="jiarugouwuche" unicode="&#xe67f;" 
d="M512 764q95 0 179.5 -35.5t149 -100t100.5 -149.5t36 -179.5t-36 -179t-100.5 -149t-149 -100.5t-179.5 -36t-179.5 36t-149 100.5t-100.5 149t-36 179t36 179.5t100.5 149.5t149 100t179.5 35.5v0zM637 75q12 0 21 9.5t9 22t-9 21.5t-21.5 9t-21.5 -9t-9 -21.5t9 -22
t22 -9.5v0v0zM415 75q13 0 22 9.5t9 22t-9 21.5t-21.5 9t-22 -9t-9.5 -21.5t9.5 -22t21.5 -9.5v0v0zM704 455q-13 14 -31 14h-274q-6 0 -10.5 -4.5t-4.5 -10.5t4.5 -10.5t10.5 -4.5h274q5 0 8 -4q5 -6 4 -15l-25 -143q0 -5 -5 -9t-11 -4l-214 -16q-6 -1 -10 -5.5t-4 -10.5
t4.5 -10t10.5 -4h1l213 16q17 0 30 11t15 28l25 143v7q0 19 -11 32v0v0zM668 185h-257q-5 0 -9.5 4t-5.5 10l-27 189l-15 88q-2 17 -15 29t-30 12h-20q-7 0 -11 -4.5t-4 -11t4 -11t11 -4.5h20q5 0 10 -4t5 -10l16 -88l26 -189q2 -17 15 -29t30 -12h257q6 0 10.5 4.5t4.5 11
t-4.5 11t-10.5 4.5v0v0zM818 606q-60 60 -139 93.5t-167 33.5t-167 -33.5t-139 -93.5t-93.5 -139t-33.5 -167t33.5 -167.5t93.5 -139t139 -93t167 -33.5t167 33.5t139 93t93.5 139t33.5 167.5t-33.5 167t-93.5 139z" />
    <glyph glyph-name="map" unicode="&#xe715;" 
d="M452 -98q20 -23 49.5 -23t49.5 23q5 5 15 16q19 21 39 45q64 76 117 150q58 81 97 152q77 137 77 229q0 109 -53 201.5t-143.5 146.5t-198 54t-198.5 -54t-143.5 -146.5t-52.5 -201.5q0 -92 77 -230q39 -70 97 -151q53 -74 117 -150q20 -24 39 -45q10 -11 15 -17v1z
M487 -65q-5 5 -14 16q-19 20 -38 43q-63 75 -116 148q-56 78 -94 146q-70 127 -70 206q0 96 46 177.5t126 128.5t174.5 47t174 -47t126 -128.5t46.5 -177.5q0 -79 -70 -205q-38 -68 -94 -147q-53 -73 -116 -147q-19 -24 -38 -44q-9 -10 -14 -16q-6 -7 -14.5 -7.5t-14.5 6.5
v1zM715 429q14 37 14 77q0 91 -63.5 155t-152.5 64t-152 -64t-63 -155t63 -155.5t152 -64.5q54 0 101 26q9 5 12 14.5t-1.5 18.5t-14 12t-18.5 -2q-37 -20 -79 -20q-69 0 -118 50t-49 121t49 121t118.5 50t118.5 -50t49 -121q0 -31 -11 -60q-3 -9 1 -18.5t13 -13t18 1
t13 13.5v0z" />
    <glyph glyph-name="duihao" unicode="&#xe69b;" 
d="M933 457l-419 -418l-283 283l75 75l208 -208l367 367q-62 90 -159.5 142.5t-210.5 52.5q-92 0 -175 -35.5t-143 -95.5t-95.5 -143.5t-35.5 -174.5t35.5 -174.5t95.5 -143.5t143 -95.5t174.5 -35.5t174.5 35.5t143.5 95.5t96 143.5t35.5 174.5q0 80 -27 155z" />
    <glyph glyph-name="weixinzhifu" unicode="&#xe62b;" 
d="M390 265q-17 -10 -30.5 -11.5t-20.5 3.5t-12 10.5t-6 11.5l-1 5l-77 178q-19 56 4 51q9 -2 22 -12q47 -36 83 -58q16 -9 35 -10.5t30 1.5l12 3l502 231q-71 88 -181.5 139t-237.5 51q-104 0 -199 -35.5t-163.5 -95.5t-109 -142.5t-40.5 -173.5q0 -104 52 -195.5
t142 -153.5l-21 -122q-1 -2 -1 -4t-0.5 -7.5t2 -8t8 -4t16.5 4.5q29 13 125 76q91 -32 189 -32q104 0 198.5 35.5t163.5 95t109.5 142.5t40.5 173q0 105 -54 199q-528 -316 -580 -345v0v0zM390 265z" />
    <glyph glyph-name="zuanshi" unicode="&#xe64c;" horiz-adv-x="1119" 
d="M1118 506q-1 3 -3 6l-155 260l-121 -266h279v0zM351 506h414l-207 293zM516 812h-293q-17 0 -34 -11l125 -274l202 285v0zM929 805q-15 7 -29 7h-299l201 -285l127 278v0zM339 464l219 -676h1l218 676h-438v0zM159 765l-151 -253l-3 -6h272l-118 259v0zM0 464l1 -2h2
q5 -6 11 -13l479 -597l-198 612h-295v0zM1119 464h-298l-202 -628l492 613q5 6 8 15v0zM1119 464z" />
    <glyph glyph-name="11" unicode="&#xe623;" 
d="M835 519q0 87 -44 161.5t-119 117.5t-164 43v0q-89 0 -164 -43t-118.5 -117.5t-43.5 -161.5v-25h33v25q0 120 86 204.5t207 84.5v0q122 0 208 -84.5t86 -204.5v-25h33v25zM659 -6q31 2 55 11t38 21.5t24.5 28.5t14 30.5t6.5 27.5t2 20.5t0 7.5v0l20 24l16 -24
q-1 -36 -11 -65.5t-25 -48t-33.5 -32.5t-36.5 -21t-33 -11t-25 -4l-9 -1l-24 16l21 20v0zM302 191q0 -21 -15.5 -35.5t-37.5 -14.5h-88q-22 0 -37.5 14.5t-15.5 35.5v277q0 21 15.5 35.5t37.5 14.5h88q22 0 37.5 -14.5t15.5 -35.5v-277zM910 191q0 -21 -15.5 -35.5
t-37.5 -14.5h-87q-23 0 -38.5 14.5t-15.5 35.5v277q0 21 15.5 35.5t38.5 14.5h87q22 0 37.5 -14.5t15.5 -35.5v-277zM665 -26q0 -19 -14.5 -32t-34.5 -13h-52q-20 0 -34 13t-14 32v0q0 18 14 31.5t34 13.5h52q30 0 43 -25q6 -9 6 -20v0v0z" />
    <glyph glyph-name="fabu1" unicode="&#xe70e;" 
d="M864 80l-416 128l416 480l-544 -480l-320 128l1024 544zM448 -112v224l128 -64z" />
    <glyph glyph-name="x" unicode="&#xe636;" 
d="M511.5 833q-91.5 0 -174.5 -35.5t-143.5 -96t-96 -143.5t-35.5 -174.5t35.5 -175t96 -143.5t143.5 -95.5t174.5 -35.5t175 35.5t143.5 95.5t95.5 143.5t35.5 175t-35.5 174.5t-95.5 143.5t-143.5 96t-175 35.5zM511.5 -21q-109.5 0 -203 54t-147.5 147t-54 203t54 203.5
t147.5 147.5t203 54t203 -54t147.5 -147.5t54 -203.5t-54 -203t-147.5 -147t-203 -54zM703 575q-6 6 -14.5 6t-14.5 -6l-162 -163l-163 163q-6 6 -14.5 6t-14.5 -6t-6 -14.5t6 -14.5l163 -163l-163 -162q-6 -6 -6 -14.5t6 -14.5t14.5 -6t14.5 6l163 162l162 -162
q6 -6 14.5 -6t14.5 6t6 14.5t-6 14.5l-163 162l163 163q6 6 6 14.5t-6 14.5z" />
    <glyph glyph-name="chanp0101" unicode="&#xe603;" 
d="M249 857q-88 0 -150.5 -62.5t-62.5 -150t62.5 -150t150.5 -62.5h212v212q0 88 -62 150.5t-150 62.5zM776 818q72 0 123 -51t51 -123t-51 -122.5t-123 -50.5h-174v173q0 72 51 123t123 51zM776 857q-88 0 -150 -62.5t-62 -150.5v-212h212q88 0 150 62.5t62 150t-62 150
t-150 62.5v0zM776 -95q88 0 150 62t62 150t-62 150t-150 62h-212v-212q0 -88 62 -150t150 -62zM249 -95q-88 0 -150.5 62t-62.5 150t62.5 150t150.5 62h212v-212q0 -88 -62 -150t-150 -62z" />
    <glyph glyph-name="xuanze" unicode="&#xe627;" 
d="M511 833q-91 0 -174 -35.5t-143 -95.5t-95.5 -143t-35.5 -174t35.5 -174t95.5 -143t143 -95.5t174 -35.5t174 35.5t143 95.5t95.5 143t35.5 174t-35.5 174t-95.5 143t-143 95.5t-174 35.5v0zM752 499l-303 -303q-10 -11 -23 2l-20 20v0l-136 136q-5 5 -5 12t5 13l37 37
q5 5 12.5 5t12.5 -5l107 -107l252 252q11 11 23 -1l37 -38q12 -12 1 -23v0zM752 499z" />
    <glyph glyph-name="kucun" unicode="&#xe63b;" 
d="M512 384zM761 -128h-4l-2 1l-2 1h-2l-2 2l-1 1l-225 122q-8 5 -11 13q-3 -8 -12 -13l-229 -125l-3 -1l-4 -1h-2h-2l-4 1h-3l-3 2l-227 124q-9 5 -12 15h-1v4v4v301q0 18 16 25l239 113v295q0 17 17 24l244 116v-3q5 0 10 -3l218 -110q16 -6 16 -24v-293v-3q5 0 11 -2
l218 -111q16 -6 16 -24v-309h-2q-3 -10 -12 -15l-229 -125l-3 -1l-4 -1h-2h-2v0zM790 -60l175 95v243l-175 -96v-242v0zM290 -60l174 95v243l-174 -96v-242v0zM736 -58v242l-72 40v-54l-61 29v58l-41 23v-243l174 -95v0zM236 -58v242l-73 40v-54l-60 29v58l-42 23v-243
l175 -95v0zM762 229l171 93l-67 34l-172 -90l68 -37v0zM262 229l171 93l-67 34l-173 -90l69 -37v0zM129 302l170 88l-30 16l-177 -84l37 -20v0zM630 302l170 88l-31 16l-176 -84l37 -20v0zM492 368v242l-73 40v-54l-61 29v58l-41 23v-242l175 -96v0zM546 372l175 96v243
l-175 -96v-243zM517 661l171 96l-67 34l-173 -92l69 -38v0zM397 728l170 90l-41 21l-177 -86l48 -25v0z" />
    <glyph glyph-name="shezhi" unicode="&#xe64b;" 
d="M512 198q76 0 129 54.5t53 131.5t-53.5 131.5t-128.5 54.5q-76 0 -129 -54.5t-53 -131.5t53.5 -131.5t128.5 -54.5v0zM512 250q-55 0 -94.5 39.5t-39.5 94.5t39.5 94.5t94.5 39.5t94.5 -39.5t39.5 -94.5t-39.5 -94.5t-94.5 -39.5v0zM249 53q51 -42 112 -67
q66 60 150.5 60t150.5 -60q65 25 112 67q-19 80 22 163q47 79 128 102q7 45 7 67.5t-7 67.5q-81 24 -128 102q-43 73 -22 163q-51 42 -112 68q-66 -61 -150.5 -61t-150.5 61q-65 -25 -112 -68q19 -80 -22 -163q-48 -78 -128 -102q-7 -45 -7 -67.5t7 -67.5q80 -23 128 -102
q41 -83 22 -163zM361 -62q-87 30 -150 89q-12 12 -7 23q25 74 -16 140q-39 69 -112 84q-16 5 -16 19q-9 43 -9 89q0 42 9 90q5 13 16 19q79 21 112 83q37 64 16 141q-5 17 7 23q62 53 150 89q12 4 22 -6q58 -58 128 -58q80 0 128 58q12 12 23 6q87 -30 150 -89q12 -12 7 -23
q-25 -74 16 -141q39 -68 112 -83q16 -5 16 -19q9 -43 9 -90q0 -41 -9 -89q-5 -14 -16 -19q-79 -21 -112 -84q-37 -63 -16 -140q5 -17 -7 -23q-62 -53 -150 -89q-12 -4 -23 6q-57 58 -128 58q-80 0 -128 -58q-6 -6 -16 -6h-6z" />
    <glyph glyph-name="shuaxin" unicode="&#xe650;" 
d="M960 266q-20 5 -32 -13q-28 -76 -85.5 -133.5t-131 -87t-158.5 -34t-169 27.5q-83 29 -147 84.5t-98.5 124.5t-42.5 147.5t22 155.5q29 75 86.5 132.5t131 87.5t158.5 34t168 -27q70 -24 128 -68.5t96 -104.5h-92q-10 0 -18 -6.5t-8 -15.5q0 -10 7 -16.5t19 -6.5h153
q10 0 18 6.5t8 16.5v140q0 10 -7 16.5t-19 6.5q-10 0 -17.5 -6.5t-7.5 -16.5v-89q-88 131 -247 189q-93 33 -187.5 28t-176 -38.5t-146.5 -98t-98 -147.5q-25 -68 -26.5 -139.5t21 -137.5t63.5 -123.5t102 -102.5t135 -70q93 -34 187.5 -28.5t176 39t146.5 97.5t98 148
q6 7 3 15.5t-13 13.5z" />
    <glyph glyph-name="wodejuhuasuan" unicode="&#xe659;" 
d="M621 410q42 29 67.5 75t25.5 97q0 89 -62.5 150.5t-149.5 61.5q-86 0 -148.5 -62.5t-62.5 -149.5q0 -54 26.5 -101.5t69.5 -74.5q-156 -36 -253.5 -150t-85.5 -256v0v0q0 -10 3 -13q3 -5 9 -9t10 -4h880q8 0 14 6.5t9 16.5v0v0v0q9 98 -35.5 186t-128 147t-188.5 80z
M336 585.5q0 67.5 48 115.5t115 48t115 -48t48 -115.5t-48 -115.5t-115 -48t-115 48t-48 115.5zM96 26q-5 94 49.5 174.5t151.5 127t212 46.5h3q115 0 212 -46t152 -126.5t52 -175.5h-832z" />
    <glyph glyph-name="yijianfankui" unicode="&#xe663;" 
d="M874 621q-12 0 -19 -8t-7 -18v-550q0 -22 -15 -36.5t-36 -14.5h-643q-22 0 -37 14.5t-15 36.5v646q0 22 15 36.5t37 14.5h521q12 0 19 8t7 18t-8 18t-18 8h-521q-43 0 -74.5 -31t-31.5 -72v-646q0 -43 31 -73t75 -30h643q43 0 74 30t31 73v550q-5 26 -28 26zM483 534
h-278q-12 0 -19 -7.5t-7 -17.5t8 -18t18 -8h278q12 0 19 8t7 18q0 11 -8 18t-18 7zM179 329.5q0 -9.5 8 -17.5t18 -8h461q11 0 18 7.5t7 18.5q0 9 -8 17t-17 8h-461q-10 0 -18 -8t-8 -17.5zM969.5 838.5q-7.5 7.5 -18 7.5t-20.5 -8l-326 -323q-7 -7 -7 -17.5t7 -17.5t18 -7
t20 7l327 323q7 7 7 17.5t-7.5 18z" />
    <glyph glyph-name="zhengque" unicode="&#xe664;" 
d="M970 688q-8 7 -18 7t-18 -7l-508 -538q-15 -14 -34.5 -14.5t-36.5 11.5l-265 253q-8 7 -18 7t-17.5 -7t-7.5 -17.5t7 -17.5l266 -253q29 -28 70 -27t68 30l508 538q10 7 10.5 17.5t-6.5 17.5z" />
    <glyph glyph-name="qian" unicode="&#xe662;" 
d="M694 609l-182 -182l-182 182q-6 6 -15 6t-15 -6t-6 -15t6 -15l161 -161h-109q-9 0 -15 -6t-6 -15t6 -15t15 -6h139v-90h-127q-9 0 -15 -6t-6 -15t6 -15t15 -6h127v-132q0 -8 6.5 -14.5t15 -6.5t15 6.5t6.5 14.5v132h127q9 0 15 6t6 15t-6 15t-15 6h-127v90h139
q8 0 14.5 6t6.5 15t-6.5 15t-14.5 6h-110l161 161q6 6 6 15t-6 15t-15 6t-15 -6zM512 831q-91 0 -173.5 -35.5t-142.5 -95.5t-95.5 -142.5t-35.5 -173.5t35.5 -173.5t95.5 -142.5t142.5 -95.5t173.5 -35.5t173.5 35.5t142.5 95.5t95.5 142.5t35.5 173.5t-35.5 173.5
t-95.5 142.5t-142.5 95.5t-173.5 35.5zM512 -20q-110 0 -203 54t-147 147t-54 203t54 203t147 147t203 54t203 -54t147 -147t54 -203t-54 -203t-147 -147t-203 -54z" />
    <glyph glyph-name="jiadiandengjusandang" unicode="&#xea58;" 
d="M653 232q51 36 80.5 91.5t29.5 118.5q0 105 -74.5 180t-179.5 75t-179 -75t-74 -180q0 -68 32.5 -126t89.5 -93l30 49q-44 27 -69.5 72t-25.5 98q0 82 57.5 140t139 58t139 -58t57.5 -140q0 -49 -22.5 -92.5t-62.5 -70.5l32 -47v0zM625 282q-10 -6 -20 -14q-6 -5 -10 -9
q-18 -17 -18 -34v-53q0 -6 -4 -10.5t-10 -4.5h-107q-6 0 -10.5 4.5t-4.5 10.5v54q0 17 -17 33q-5 5 -11 9q-10 8 -20 14l-30 -48q8 -5 15 -11q4 -3 7 -5q2 -2 2 -3q-3 4 -3 11v-54q0 -30 21 -51t51 -21h107q29 0 50 21t21 51v53q0 -6 -2 -10q0 1 2 3q3 2 7 5q7 6 14 11
l-30 48v0zM571 379q-8 -2 -20 -4q-29 -5 -52 -4q-44 1 -51 22q-3 11 2 19.5t15 10.5q10 3 14.5 -2t4.5 -20v-119v-35v-104q0 -12 8 -20.5t20 -8.5t20 8.5t8 20.5v104v35v119q0 42 -26 64.5t-63 12.5q-34 -8 -51 -38t-6 -65q19 -58 103 -61q29 -1 64 5q15 2 25 5
q11 3 17 13.5t3 21.5t-13.5 17t-21.5 3v0zM404 14h210q12 0 20.5 8.5t8.5 20t-8.5 20t-20.5 8.5h-210q-11 0 -19.5 -8.5t-8.5 -20t8.5 -20t19.5 -8.5v0zM464 -71h90q12 0 20.5 8.5t8.5 20t-8.5 20t-20.5 8.5h-90q-11 0 -19.5 -8.5t-8.5 -20t8.5 -20t19.5 -8.5v0zM100 412h71
q11 0 19.5 8.5t8.5 20.5t-8.5 20t-19.5 8h-71q-12 0 -20.5 -8t-8.5 -20t8.5 -20.5t20.5 -8.5v0zM191 708l42 -57q7 -9 19 -10.5t21 5.5t11 18.5t-5 21.5l-43 56q-7 10 -18.5 11.5t-21 -5.5t-11 -18.5t5.5 -21.5v0zM788 742l-43 -56q-7 -10 -5 -21.5t11 -18.5t21 -5.5
t19 10.5l42 57q7 10 5.5 21.5t-11 18.5t-21 5.5t-18.5 -11.5v0zM236 111l43 57q7 9 5 21t-11 19t-21 5t-19 -11l-42 -57q-7 -9 -5.5 -21t11 -19t21 -5t18.5 11v0zM833 145l-42 57q-7 9 -19 11t-21 -5t-11 -19t5 -21l43 -57q7 -9 18.5 -11t21 5t11 19t-5.5 21v0zM853 412h71
q12 0 20.5 8.5t8.5 20.5t-8.5 20t-20.5 8h-71q-11 0 -19.5 -8t-8.5 -20t8.5 -20.5t19.5 -8.5v0zM484 839v-59q0 -11 8 -19.5t20 -8.5t20 8.5t8 19.5v59q0 12 -8 20.5t-20 8.5t-20 -8.5t-8 -20.5v0z" />
    <glyph glyph-name="jiaobiao" unicode="&#xe661;" 
d="M113 3h754q14 0 24 10t10 24v755zM829 326l-173 -172l-11 -11v-1q-6 -5 -13 -5t-12 5l-118 119q-5 5 -5 12t6 12l12 12q5 6 12.5 6t11.5 -5l93 -93l159 159q5 5 12 5t12 -5l14 -14q5 -4 5 -11.5t-5 -12.5z" />
    <glyph glyph-name="bianji" unicode="&#xe633;" 
d="M35 384v346q0 69 44 113t112 44h430q7 0 9.5 -3t2.5 -10v-26q0 -12 -12 -12q-366 0 -429 1q-45 0 -76.5 -30t-30.5 -78q1 -346 0 -693q-1 -47 30.5 -77t76.5 -30q80 1 634 1q48 0 77 29t29 77v484q0 14 13 14h13h12q12 0 12 -13v-161v-324q0 -69 -44 -113t-114 -44h-633
q-68 0 -112 44t-44 112v349zM333 309q-6 -7 1 -14q75 -71 114 -109q8 -8 17 1q66 68 290 295l126 128l-130 123q0 -1 -73 -75t-180.5 -183t-164.5 -166zM973 744q-2 19 -12.5 33.5t-29.5 30.5q-23 21 -53.5 20.5t-53.5 -22.5q-6 -6 -17.5 -18t-17.5 -17q-7 -6 0 -12
q51 -49 117 -112q6 -6 12 0t18 18.5t18 18.5q18 20 20 52q-1 7 -1 8zM425 146q-11 11 -130 123q-19 -61 -61 -189q13 4 83.5 28.5t107.5 37.5z" />
    <glyph glyph-name="yidu" unicode="&#xe658;" 
d="M512 832l-447 -297v-598h893v598zM918 527l-104 -69v83h-605v-83l-103 69l406 271zM785 439l-273 -183l-274 183v74h547v-74zM94 -35v535l418 -278l418 278v-535h-836z" />
    <glyph glyph-name="xinfeng8" unicode="&#xe643;" 
d="M584 709h126q5 0 9.5 4t4.5 10t-4.5 10t-9.5 4h-126q-6 0 -10 -4t-4 -10t4 -10t10 -4zM345 597h365q5 0 9.5 4t4.5 10t-4.5 10t-9.5 4h-365q-5 0 -9.5 -4t-4.5 -10t4.5 -10t9.5 -4zM724 499q0 6 -4.5 10t-9.5 4h-365q-5 0 -9.5 -4t-4.5 -10t4.5 -10t9.5 -4h365q5 0 9.5 4
t4.5 10zM950 505l-114 48v238q0 24 -17 41t-42 17h-499q-24 0 -41.5 -17t-17.5 -41v-238l-104 -44q-16 -7 -26 -21.5t-10 -32.5v-444q0 -24 17 -41t42 -17h780q24 0 41 17t17 41v455q0 28 -26 39zM836 523l95 -41l-95 -60v101zM247 791q0 12 9 21t22 9h499q13 0 22 -9t9 -21
v-386l-264 -166q-16 -10 -32 0l-265 166v386zM126 483l93 40v-101l-95 60l0.5 0.5t1.5 0.5zM948 11q0 -13 -9 -21.5t-21 -8.5h-780q-13 0 -22 8.5t-9 21.5v444q0 1 0.5 2.5l0.5 1.5l389 -243q14 -9 30.5 -9t30.5 9l390 244v-449v0z" />
    <glyph glyph-name="danju" unicode="&#xe67c;" 
d="M881 722h-106q-9 0 -15 -6t-6 -14.5t6 -15t15 -6.5h106v-703h-738v703h108q9 0 15 6.5t6 15t-6 14.5t-15 6h-108q-17 0 -29 -12t-12 -30v-703q0 -17 12 -29.5t29 -12.5h738q18 0 30 12.5t12 29.5v703q0 18 -12 30t-30 12zM346 679h332q9 0 15 6t6 15t-6 15t-15 6h-64
q1 7 1 8q0 43 -30 73t-72.5 30t-72.5 -30t-30 -73v-8h-64q-8 0 -14.5 -6t-6.5 -15t6.5 -15t14.5 -6zM452 729q0 26 17.5 43.5t42.5 17.5t43 -17.5t18 -43.5q0 -1 -1 -8h-119q-1 7 -1 8zM302 475h421q8 0 14 6t6 14.5t-6 14.5t-14 6h-421q-9 0 -15 -6t-6 -14.5t6 -14.5t15 -6
zM302 295h421q8 0 14 6t6 14.5t-6 15t-14 6.5h-421q-9 0 -15 -6.5t-6 -15t6 -14.5t15 -6zM302 115h421q8 0 14 6t6 15t-6 15t-14 6h-421q-9 0 -15 -6t-6 -15t6 -15t15 -6z" />
    <glyph glyph-name="laba" unicode="&#xe647;" 
d="M867 611q-9 10 -22 10t-22.5 -9.5t-9.5 -22.5t9 -23q74 -73 74 -182q0 -104 -74 -182q-9 -10 -9 -23t9.5 -22.5t22.5 -9.5t22 10q93 93 93 227t-93 227zM774 518q-9 10 -22 10t-22.5 -9.5t-9.5 -22.5t10 -22q38 -39 38 -90q0 -56 -38 -90q-10 -9 -10 -22t9.5 -22.5
t22.5 -9.5t22 10q58 57 58 134q0 38 -15.5 74t-42.5 60zM557 752l-237 -144v-448l237 -144q33 -21 58 -7.5t25 52.5v643q0 40 -25 54t-58 -6zM64 512v-256q0 -41 27.5 -68.5t68.5 -27.5h96v448h-96q-41 0 -68.5 -27.5t-27.5 -68.5z" />
    <glyph glyph-name="weidu1" unicode="&#xe732;" 
d="M873 757h-730q-30 0 -52 -20l-1 -0.5t-2 -1.5v0h-1q-23 -24 -23 -57v-558q0 -33 23 -56.5t56 -23.5h730q33 0 56 23.5t23 56.5v558q0 33 -23 56t-56 23zM143 726h730q9 0 18 -4l-384 -386l-383 386q9 4 19 4zM95 120v558q0 11 6 22l297 -298l-299 -301q-4 9 -4 19z
M873 72h-730q-12 0 -23 6l300 301l72 -72l0.5 -0.5l0.5 -0.5q3 -11 15 -11t15 12v0l72 72l300 -302q-11 -5 -22 -5zM920 120q0 -10 -3 -19l-300 301l297 298q6 -11 6 -22v-558z" />
    <glyph glyph-name="yidu1" unicode="&#xe733;" 
d="M935 29q0 -31 -22.5 -53.5t-53.5 -22.5h-693q-31 0 -54 22.5t-23 53.5v501l2 -1q0 8 6 13l402 287q6 4 13 2q7 2 13 -2l402 -287q6 -5 6 -13l2 1v-501zM905 495l-281 -219l281 -219v438zM166 -17h693q16 0 29 10.5t16 26.5l-305 237l-73 -57q-4 -4 -9 -4q-1 0 -5 1
q-3 -1 -4 -1q-5 0 -9 4l-74 57l-305 -238q4 -15 17 -25.5t29 -10.5zM119 57l282 219l-282 219v-438zM512 801l-384 -274l384 -300l384 299z" />
    <glyph glyph-name="iconjindu" unicode="&#xe617;" horiz-adv-x="1035" 
d="M16 645q-9 9 -9 21.5t9 21.5t21.5 9t21.5 -9l278 -278q9 -9 9 -21.5t-9 -21.5v-1l-281 -280q-8 -9 -21 -9t-21.5 9t-8.5 21.5t9 21.5l259 259l-257 257v0v0v0zM689 645q-9 9 -9 21.5t9 21.5t21.5 9t21.5 -9l278 -278q9 -9 9 -21.5t-9 -21.5v-1l-281 -280q-8 -9 -21 -9
t-21.5 9t-8.5 21.5t8 21.5l260 259l-257 257v0v0v0zM352 645l257 -257l-259 -259q-9 -9 -9 -21.5t9 -21.5t21.5 -9t21.5 9l280 280l1 1q9 9 9 21.5t-9 21.5l-279 278q-9 9 -21.5 9t-21.5 -9t-9 -21.5t9 -21.5v0v0zM352 645z" />
    <glyph glyph-name="gongchang" unicode="&#xe646;" 
d="M787 364l94 -41v-139v-9l7 -8l53 -57v-234h55v244v10l-7 7l-53 57v144v15l-14 8l-135 59l-277 -84v-452h277v480v0zM245 487q-8 -2 -16.5 -4t-19.5 -5t-16 -4v-79q32 6 52 10v82v0zM741 348v-66q-37 -7 -45 -8v62q8 3 25.5 7t19.5 5v0zM581 136v-56h-33v54q4 0 33 2v0z
M655 140v-60h-39v58q7 0 21 1t18 1v0zM741 146v-66h-45v63q7 0 45 3v0zM581 222v-56q-6 -1 -17 -2t-16 -1v54q6 1 17 2.5t16 2.5v0zM655 233v-60q-7 -1 -20 -2t-19 -2v58q4 1 17.5 3t21.5 3v0zM741 247v-66q-33 -3 -45 -4v63q5 0 20.5 2.5t24.5 4.5v0zM581 308v-56
q-1 0 -33 -6v54q25 6 33 8v0zM655 326v-60q-7 -2 -20.5 -4t-18.5 -3v58q12 3 39 9v0zM363 517q-56 -15 -62 -16v-86q46 9 62 12v90v0zM145 227q-7 0 -22.5 -1t-23.5 -1v-74h46v76v0zM245 234q-8 -1 -16.5 -1.5t-19.5 -1t-16 -1.5v-79h52v83v0zM363 241q-10 -1 -31 -2t-31 -2
v-86h62v90v0zM145 345q-35 -6 -46 -7v-74q24 2 46 4v77v0zM245 360q-8 -1 -25.5 -4t-26.5 -4v-79q6 1 52 5v82v0zM363 379q-27 -5 -62 -10v-86l33 3t29 3v90v0zM145 462q-9 -2 -24 -6t-22 -5v-74q15 3 46 9v76v0zM425 615l180 -89l14 -8v-14v-120h-55v105l-139 68v-673h-377
v616z" />
    <glyph glyph-name="dianhuaben" unicode="&#xe62c;" 
d="M911 12q0 -30 -21.5 -51.5t-51.5 -21.5h-652q-10 0 -18 7.5t-8 18.5v95h21q18 0 31 13t13 31.5t-13 31.5t-31 13h-21v201h21q18 0 31 13t13 31.5t-13 31.5t-31 13h-21v180h21q18 0 31 13t13 31.5t-13 31.5t-31 13h-21v95q0 11 8 18.5t18 7.5h652q30 0 51.5 -21.5
t21.5 -51.5v-744zM838 896h-652q-38 0 -65.5 -27.5t-27.5 -65.5v-95h-15q-19 0 -32 -13t-13 -31.5t13 -31.5t32 -13h15v-180h-15q-19 0 -32 -13t-13 -31.5t13 -31.5t32 -13h15v-201h-15q-19 0 -32 -13t-13 -31.5t13 -31.5t32 -13h15v-95q0 -38 27.5 -65.5t65.5 -27.5h652
q58 0 99 41t41 99v744q0 58 -41 99t-99 41v0zM646 257q-33 -27 -131.5 90t-66.5 143q2 2 6 5q17 14 24 22t12.5 22.5t-1.5 34t-26 47.5q-10 14 -20 23.5t-18.5 14t-19 4t-17 -2t-17.5 -8.5t-15.5 -10.5t-15.5 -13t-14 -11.5q-16 -14 -18 -46.5t9.5 -76t42.5 -100t78 -111.5
q90 -108 183.5 -152t128.5 -15q3 3 14 11.5t15.5 12.5t13.5 13.5t11.5 15.5t5 16t-1 19t-10.5 21t-20 24q-24 23 -42.5 33t-34 7.5t-24.5 -8t-25 -19.5q-4 -4 -6 -5v0z" />
    <glyph glyph-name="gouwudai1" unicode="&#xe63e;" 
d="M858 -63h-695v695h695v-695zM207 -19h607v607h-607v-607zM647 467h-44v231q0 38 -26.5 64t-64 26t-64 -26t-26.5 -64v-231h-44v231q0 56 39.5 95.5t95 39.5t95 -39.5t39.5 -95.5v-231zM398 383q-23 0 -39 16t-16 39t16 39t39 16t39 -16t16 -39t-16 -39t-39 -16z
M398.5 449q-4.5 0 -8 -3.5t-3.5 -7.5t3.5 -7.5t8 -3.5t7.5 3.5t3 7.5t-3 7.5t-7.5 3.5zM623 383q-23 0 -39 16t-16 39t16 39t39 16t39 -16t16 -39t-16 -39t-39 -16zM622.5 449q-4.5 0 -7.5 -3.5t-3 -7.5t3 -7.5t7.5 -3.5t8 3.5t3.5 7.5t-3.5 7.5t-8 3.5z" />
    <glyph glyph-name="address1" unicode="&#xe60b;" 
d="M512 672q-68 0 -116 -46.5t-48 -113t48 -113.5t116 -47t116 46.5t48 113t-48 113.5t-116 47zM512 416q-41 0 -70 28t-28.5 68t29 68t69.5 28t70 -28t28.5 -68t-29 -68t-69.5 -28zM513 896q-107 0 -198 -51t-144 -139.5t-53 -192.5q0 -60 40.5 -147.5t98 -170.5
t115.5 -157.5t98 -120t41 -45.5q8 9 22 25t55 64.5t78.5 96t83 112.5t78.5 122t55.5 116.5t22.5 102.5q0 104 -52.5 193t-143 140.5t-197.5 51.5zM184 513q0 87 44 160.5t120 116t165 42.5t164.5 -43t119 -117t43.5 -161q0 -45 -34 -120.5t-82 -151.5t-97 -146t-82 -113.5
t-34 -43.5q-14 17 -36 46t-78 110t-99.5 151t-78.5 147.5t-35 122.5z" />
    <glyph glyph-name="back3" unicode="&#xe62a;" 
d="M512 781q-108 0 -199 -53.5t-144.5 -144.5t-53.5 -199t53.5 -199t144.5 -144.5t199 -53.5t199 53.5t144.5 144.5t53.5 199t-53.5 199t-144.5 144.5t-199 53.5zM434 380l192 -169q6 -6 6.5 -14.5t-5.5 -14.5q-6 -7 -15 -7q-8 0 -14 5l-191 170l-1 1q-14 14 -14 34.5
t14 34.5l1 1l191 167q7 6 15.5 5t14 -7t5 -14.5t-7.5 -14.5l-191 -166q-1 -3 -1 -5.5t1 -5.5z" />
    <glyph glyph-name="kehu" unicode="&#xe626;" 
d="M936 143q-32 26 -108 56l-40.5 16.5t-28 16t-19.5 21.5q-2 20 -1 54v6v0.5t1 0.5q21 23 39 84q2 9 11 54l11 55q34 143 -21 215q-46 61 -150 63h-1h-1q-7 -2 -13.5 -7.5t-6.5 -16.5l1 -2q-2 -4 -2 -8q0 -10 6.5 -16t13.5 -7h1q79 -2 111 -44q22 -28 24 -76
q2 -46 -14 -106q-2 -7 -10 -46t-8 -46q-3 -28 -22 -58q-3 -6 -5 -7q-7 -4 -10 -11q-5 -6 -5 -14v-17q0 -37 2 -61q0 -3 1 -6q6 -16 16.5 -28t29 -22.5t31 -16t37.5 -15.5q68 -27 94 -48q33 -26 41 -63h-98h-1q-14 -3 -14 -21q0 -17 13 -25l1 -1h4h1h128q10 0 17 7t6 18
q-4 76 -62 122zM748 117q-34 27 -114 59q-29 11 -43 17.5t-30 17.5t-21 22q-2 21 -2 58v7q23 24 43 90q3 9 12.5 57t10.5 59q37 151 -21 227q-49 65 -158 67h-3v0q-110 -2 -159 -67q-58 -76 -22 -226q2 -12 11.5 -60t11.5 -57q20 -66 43 -90v-8q1 -36 -1 -57
q-8 -16 -29.5 -28t-64.5 -29q-81 -32 -115 -59q-61 -50 -66 -130q-1 -11 6.5 -19t18.5 -8h734q11 0 18 8t6 19q-4 80 -66 130z" />
    <glyph glyph-name="guanjun" unicode="&#xe630;" 
d="M393 168q-84 -14 -119 0q-14 6 -23 17t-12 23t-4 18t-1 10v40l-180 -188h202v-194l206 209l-65 68zM779 272l-4 -32q0 -15 -7 -35.5t-22 -29.5q-21 -15 -65 -15h-14q-10 0 -19.5 3t-15.5 6l-5 2l-10 4l-62 -72l206 -206l3 191l202 4zM609 193q2 2 5.5 2.5t8 0t9 -1.5
t11 -2.5t10.5 -2.5t14 -4t18 -5t14 -2q31 0 48 30t17 71q0 15 9 25t31 26l22 11q26 17 36.5 31.5t10.5 40.5q0 21 -22 50q-14 22 -18 33q-2 5 -0.5 11t7.5 19.5t7 16.5q22 36 22 54q0 9 -2 16.5t-8.5 15t-10 12t-15 11t-14.5 8.5t-17.5 9t-15.5 7l-7 4q-3 1 -5.5 3t-4 5
l-2.5 5t-2 7l-1.5 7.5t-1.5 9.5t-1 10q0 27 -11 54q-6 15 -17 23.5t-26 9.5t-26 0t-28 -5q-11 -3 -33 -3q-17 0 -31.5 10.5t-33.5 32.5l-3 7q-21 21 -44 26q-26 0 -46 -26q-37 -36 -44 -47q-36 8 -97 8q-69 -4 -69 -112q0 -30 -72 -58q-20 -10 -25 -25q-4 -8 -4.5 -16.5
t3.5 -21.5t8.5 -24t14.5 -32q6 -14 7.5 -26.5t-2 -24.5t-9 -21t-14.5 -22q-2 -1 -5.5 -6.5t-5.5 -7.5q-12 -19 -4 -43q13 -34 72 -51q44 -11 44 -72q0 -68 50 -68q29 0 47 3q9 0 24.5 2t22.5 2q5 0 18 -11t21 -22q33 -32 51 -39q2 0 5.5 -2t5.5 -2q42 0 104 76zM278 499.5
q0 97.5 68.5 166t165.5 68.5t165.5 -68.5t68.5 -166t-68.5 -166t-165.5 -68.5t-165.5 68.5t-68.5 166zM512 705q-84 0 -145 -60t-61 -146q0 -84 60 -144.5t146 -60.5q84 0 145 59.5t61 145.5q0 84 -61 145t-145 61zM555 424h15l7 3v7v94h-25h-29h-22v22h22h29h25v18v14v11v7
q4 0 8.5 -1.5t5.5 -1.5h11q4 0 7 -4q0 -3 -3 -7l-4 -4v-7v-25h22h18v-18h-18h-22v-101q0 -7 -3 -11q0 -3 -2.5 -5t-5.5 -2q-3 -4 -18 -4q-3 0 -13 -1.5t-16 -1.5q0 7 -3 10l-3.5 4.5t-7.5 6.5q7 -3 25 -3zM516 503l14 11q4 -4 9 -11t9 -11q4 -7 14 -18l-18 -11q-4 9 -10 22
l-1 1l-1 1l-1 1l-1 1l-1 1l-1 1l-2 1l-1 2l-1 1l-2 1l-1 1l-1 2l-1 1l-1 1l-1 1zM375 636h18h25h36h51h50h36h26h18v-61h-22v43h-220v-47h-18v65zM490 579v-22q-10 0 -18 4h-25h-25q-15 0 -22 -4v22h22h25h25h18zM631 384q-14 -14 -32 -14h-47h-54q-15 0 -22 3q-2 0 -5.5 2
t-5.5 2q-2 2 -3.5 5.5t-3.5 5.5v14v108h-29q0 -36 -4 -47q0 -14 -7 -35.5t-14 -29.5q-4 -5 -11 -14t-11 -14q-7 7 -11 7q-1 0 -5.5 1.5t-8.5 1.5q5 4 9.5 8.5t9 9.5t6.5 8q4 3 15 25q7 22 7 32q0 7 1.5 22.5t1.5 24.5h-21q-11 0 -15 -3v21q1 0 8.5 -1.5t13.5 -1.5h43h29h18
h11h7v-22l-10 2t-19 2v-105q0 -7 4 -10.5t18 -3.5h47q29 0 43 3q4 0 8.5 2t6.5 2q3 0 10 7q2 2 4 5.5t4 5.5q3 3 3 18q2 -2 5.5 -4t5.5 -3q4 -4 11 -4q4 -21 -11 -36z" />
    <glyph glyph-name="wuliugenzong" unicode="&#xe614;" 
d="M92 433l75 100q1 1 4.5 5.5t4.5 5.5t4 4.5t4.5 4.5t4.5 3.5t5 3.5t5 3t5.5 2.5t6 1t7.5 0.5h169q14 0 24 -10t10 -24v-335q0 -13 -10 -23t-24 -10q-1 10 -5 20q-8 46 -44.5 77t-84.5 31q-54 0 -92 -37.5t-38 -90.5h-23q-14 0 -23.5 10t-9.5 23v168q0 14 6.5 31t12.5 27
l6 9v0zM309 366v127h-85q-3 0 -6.5 -1.5t-5.5 -3.5l-2 -2l-74 -93q-13 -18 -13 -27h186v0v0zM756 256q39 0 66.5 -26.5t27.5 -64.5t-27.5 -65t-66 -27t-66 27t-27.5 65t27.5 64.5t65.5 26.5v0zM493 695h434q14 0 24 -10t10 -25v-479q0 -14 -10 -24t-24 -10h-41q1 9 1 18
q0 53 -38.5 90.5t-92.5 37.5t-92 -37.5t-38 -90.5q0 -9 1 -18h-134q-14 0 -24.5 10t-10.5 24v479q0 15 10.5 25t24.5 10v0zM253 256q39 0 66 -26.5t27 -64.5t-27 -65t-65.5 -27t-66 27t-27.5 65t27.5 64.5t65.5 26.5v0z" />
    <glyph glyph-name="shengchan" unicode="&#xe60d;" 
d="M597 534l-44 10q-5 15 -13 31l23 40q19 30 0 49l-24 24q-9 9 -24 9q-14 0 -25 -8l-39 -24q-17 8 -32 13l-10 44q-2 14 -12.5 24t-23.5 10h-34q-14 0 -23 -10t-12 -24l-11 -44q-17 -6 -33 -14l-40 25q-11 8 -25 8q-15 0 -25 -9l-24 -25q-19 -18 0 -48l25 -42
q-8 -16 -12 -29l-44 -10q-13 -3 -23.5 -13t-10.5 -23v-35q0 -13 10 -22t24 -12l45 -11q4 -14 11 -28l-25 -42q-19 -30 0 -48l24 -25q10 -9 24 -9q15 0 26 8l40 25q16 -8 33 -14l11 -44q3 -14 12 -24t23 -10h34q14 0 24 10.5t12 23.5l10 45q16 5 31 13l39 -25q11 -8 25 -8
q15 0 25 9l24 25q19 18 0 48l-24 40q7 15 12 30l45 11q14 3 24 12t10 22v35q1 13 -9.5 23t-23.5 13v0zM603 463q0 -4 -13 -8l-45 -11l-15 -3l-4 -15q-5 -14 -11 -25l-7 -14l8 -13l24 -40q2 -3 3 -6.5t1 -5.5v-3l-25 -24q-1 -1 -4 -1q-6 0 -10 3h-1v0l-39 25l-13 8l-14 -7
q-13 -7 -27 -11l-15 -5l-4 -15l-10 -45v-1q-1 -4 -4 -8t-5 -4h-34q-5 0 -8 14l-11 44l-4 15l-14 4q-15 5 -30 13l-14 7l-13 -9l-40 -25v0h-1q-4 -3 -10 -3q-3 0 -4 1l-25 24v3t1 5.5t4 6.5l25 42l7 13l-6 13q-6 13 -10 24l-5 15l-15 3l-45 11q-13 3 -13 8v35q0 2 3.5 5
t8.5 4v0h1l44 10l16 3l5 15q4 13 10 26l7 13l-8 13l-25 43q-2 3 -3.5 6.5t-1.5 5t1 2.5l24 24q1 2 5 2q5 0 10 -3v0l1 -1l39 -25l14 -8l14 7q14 8 29 12l14 5l4 15l11 44q3 13 8 13h34q3 0 6 -3.5t3 -7.5l1 -1v0l10 -45l3 -15l15 -5q13 -5 27 -12l14 -7l13 9l39 24l1 1v0
q4 3 10 3q3 0 5 -2l24 -24v-2.5t-1 -5.5t-3 -7l-24 -40l-8 -13l7 -13q7 -13 11 -28l5 -15l16 -3l44 -10v0h1q4 -1 7.5 -4t3.5 -5v61v-96v0zM356 592q-45 0 -77.5 -32.5t-32.5 -78t32.5 -77.5t78 -32t77.5 32t32 77.5t-32 78t-78 32.5v0zM356 398q-34 0 -58.5 24.5t-24.5 59
t24.5 58.5t59 24t59 -24t24.5 -58.5t-24.5 -59t-59.5 -24.5v0zM918 269l-32 8q-4 11 -10 23l18 29q13 22 0 36l-18 18q-7 7 -18 7q-10 0 -19 -6l-28 -18q-11 5 -23 9l-7 33q-2 10 -9.5 17.5t-17.5 7.5h-25q-10 0 -16.5 -7.5t-9.5 -17.5l-8 -32q-12 -4 -24 -11l-29 19
q-9 6 -19 6q-11 0 -18 -7l-18 -18q-14 -14 0 -36l19 -31q-5 -10 -9 -21l-33 -8q-9 -1 -17 -8.5t-8 -17.5v-25q0 -10 7.5 -16.5t18.5 -9.5l32 -8q4 -11 9 -20l-19 -31q-14 -22 0 -35l18 -18q7 -7 18 -7q10 0 19 6l29 18q12 -6 25 -10l8 -32q2 -11 8.5 -18.5t16.5 -7.5h25
q10 0 17.5 8t9.5 17l7 33q12 4 23 10l28 -18q9 -6 19 -6q11 0 18 7l18 18q13 13 0 35l-18 30q6 11 9 21l33 8q10 3 17.5 9.5t7.5 15.5v26q0 10 -7.5 17.5t-17.5 8.5v0zM923 218q0 -4 -10 -6l-33 -8l-11 -3l-3 -11q-3 -10 -8 -18l-5 -10l6 -10l17 -29q2 -3 3 -5.5t1 -4
t-1 -1.5l-18 -18q0 -1 -3 -1q-4 0 -7 2l-1 1v0l-28 18l-10 6l-11 -5q-10 -5 -19 -8l-11 -4l-3 -11l-7 -33v-1q-2 -8 -7 -8h-25q-4 0 -6 10l-8 32l-3 11l-10 3q-11 4 -22 9l-10 6l-10 -6l-29 -19l-1 -1v0q-3 -2 -7 -2q-3 0 -4 1l-18 18v1.5t1 4t2 5.5l19 31l6 9l-5 10
q-4 8 -8 17l-3 11l-11 3l-33 8q-10 2 -10 5v26q0 5 9 6v0l1 1l32 7l11 2l4 11q2 9 7 19l5 10l-5 10l-19 31q-1 2 -2 4.5t-1 4v1.5l18 18q1 1 4 1q4 0 7 -2v0v0l30 -19l9 -6l11 5q11 6 21 9l11 3l2 11l9 33q2 10 5 10h25q6 0 7 -9v0v-1l8 -32l2 -12l11 -3q10 -3 20 -8l10 -6
l10 6l29 19v0v0q3 2 8 2q2 0 3 -1l18 -18v-1.5t-0.5 -4t-2.5 -5.5l-17 -29l-6 -9l5 -10q5 -10 8 -20l4 -11l11 -3l33 -7v0v0q9 -2 9 -7v45v-70v0zM741 312q-33 0 -57 -23.5t-24 -57t24 -57.5t57.5 -24t57 24t23.5 57.5t-23.5 57t-57.5 23.5v0zM742 170q-26 0 -43.5 18
t-17.5 43t17.5 43t43 18t43.5 -18t18 -43t-18 -43t-43 -18v0z" />
    <glyph glyph-name="ding" unicode="&#xe64a;" 
d="M468 294q6 -33 13 -57q-65 -42 -130 -92q-17 -14 -37 -35l-41 39q26 24 26 67v222h-93v49h145v-278q48 32 117 85zM284 697q65 -56 116 -108l-43 -40q-47 54 -109 113zM437 655h411v-48h-146v-430q0 -87 -86 -88h-117q-4 24 -11 59q65 -6 112 -6q48 0 48 49v416h-211v48z
" />
    <glyph glyph-name="icon3" unicode="&#xe625;" 
d="M782 512q59 0 101 41.5t42 100.5t-42 101t-101 42t-101 -42t-42 -101q0 -9 2 -20l-300 -116q-42 45 -103 45q-59 0 -101 -41.5t-42 -100.5t42 -101t101 -42q45 0 82 27l203 -136q-13 -28 -13 -59q0 -59 41.5 -101t100.5 -42t101 42t42 101t-42 100.5t-101 41.5
q-57 0 -99 -40l-196 131q23 35 23 78q0 27 -10 53l288 111q18 -34 51.5 -53.5t72.5 -19.5v0z" />
    <glyph glyph-name="xinyongqia" unicode="&#xe84a;" 
d="M870 -63h-716q-32 0 -54.5 22.5t-22.5 54.5v461q0 31 22.5 53.5t54.5 22.5h716q32 0 54.5 -22.5t22.5 -53.5v-461q0 -32 -22.5 -54.5t-54.5 -22.5zM154 500q-11 0 -18.5 -7.5t-7.5 -17.5v-461q0 -10 7.5 -17.5t18.5 -7.5h716q11 0 18.5 7.5t7.5 17.5v461q0 10 -7.5 17.5
t-18.5 7.5h-716zM121 385h782v-82h-782v82zM615 160zM574 160.5q0 16.5 12 28.5t29 12t29 -12t12 -28.5t-12 -28.5t-29 -12t-29 12t-12 28.5zM796 160zM755 160.5q0 16.5 12 28.5t29 12t29 -12t12 -28.5t-12 -28.5t-29 -12t-29 12t-12 28.5z" />
    <glyph glyph-name="zijinzhanghu" unicode="&#xe604;" 
d="M102 203v27l2 11q6 62 31 118q36 77 107 138q84 72 133 133q3 3 11 3q43 1 126 1h121q7 0 12 -6q66 -69 82 -84q13 -13 49.5 -45t54.5 -51q87 -89 90 -216q1 -31 -4 -70q-11 -91 -73 -162q-65 -73 -179 -106q-121 -36 -251 -13q-159 28 -247 145q-49 65 -60 141
q0 2 -5 36v0v0zM549 169h4h3h2q9 0 23.5 0.5t27 0.5h22.5q22 1 25 22q1 8 -4.5 15t-15.5 9q-6 2 -14 2h-61h-12v17q0 5 3 7q7 7 86 83q4 4 7 8q10 13 3 24q-11 17 -27 13q-13 -2 -22 -10q-11 -9 -75 -65q-1 0 -7 -6l1 2q-60 56 -69 64q-13 13 -30 18q-12 3 -21.5 -3.5
t-9.5 -18.5q0 -15 14 -29q15 -16 44.5 -44.5t34.5 -33.5q3 -3 3 -5q0 -3 -1 -22h-9h-70q-10 0 -17.5 -7t-8.5 -15q-1 -11 6.5 -18.5t20.5 -7.5h69h8v-39h-11h-68q-11 0 -18 -6.5t-7 -16.5q-1 -18 23 -20q4 -1 9 -1h32h32h2.5h3.5h3v-19q1 -19 11 -25q20 -12 38 -3
q17 8 17 30v17h49q29 0 39 1q20 2 19 21q-1 20 -21 22q-8 1 -52 2h-33q-1 12 -1 37v0v0zM508 686h-114q-7 0 -10 5q-25 38 -45 67q-14 20 -55 51q-15 12 -19 30q-1 11 6.5 20t18.5 9q8 0 30 -5q4 -1 11.5 -3t11.5 -3q22 -6 42 11q16 12 26 19q16 10 35 8t32 -15q8 -7 28 -20
q4 -2 10 2q12 9 24 20q33 29 78 -2q3 -2 11 -9q24 -23 58 -10q17 6 25 8q13 3 24.5 -3.5t13.5 -18.5q3 -14 -9 -29q-6 -8 -13 -12q-28 -16 -61 -62q-10 -14 -34 -53q-4 -5 -11 -5h-114v0v0zM508 686z" />
    <glyph glyph-name="gouwu2" unicode="&#xe875;" 
d="M826 675h-332l120 122q20 21 45 21.5t46 -20.5l121 -123v0zM894 646q25 0 39 -7t20 -17t5.5 -22t-3.5 -20q-1 -5 -11 -34q-16 -44 -20 -56l-21 -62q-10 -29 -16 -48q-12 -36 -30 -50.5t-44 -14.5h-32h-58h-76h-85h-225l13 -83h458q43 0 43 -38q0 -18 -8.5 -31.5
t-33.5 -13.5h-44h-83h-106h-106h-88h-49q-18 0 -30 8t-21 22q-8 13 -13 29q-4 14 -7 30q-2 8 -5 26l-10 53l-14 71l-14 79q-15 83 -39 207h-68q-14 0 -23 7t-15 17q-6 9 -8 20.5t-2 20.5q0 18 12 30t33 12h19h19h23h31q18 0 29 -5.5t17 -13.5t9 -18l5 -15q2 -8 3 -21l4 -27
q2 -10 5 -35h621v0zM741.5 122q17.5 0 32.5 -6q16 -6 27.5 -18t18.5 -27.5t7 -32.5q0 -18 -7 -34q-7 -15 -18.5 -26.5t-27.5 -18.5q-15 -7 -32.5 -7t-32.5 7t-26.5 18.5t-18.5 26.5q-7 16 -7 34q0 17 7 33q7 15 18 27t26.5 18t33 6zM364 124q17 0 32.5 -6.5t27 -17.5
t18.5 -27q6 -16 6 -33.5t-6 -33.5q-7 -15 -18 -27q-12 -11 -27 -18q-16 -7 -33 -7q-18 0 -33.5 7t-27 18.5t-17.5 26.5q-7 16 -7 33.5t7 33.5q6 15 18 27q11 11 26.5 17.5t33.5 6.5v0z" />
    <glyph glyph-name="xiaohuodanju01" unicode="&#xe615;" 
d="M550 596l80 81q11 11 22 0l79 -80q8 -7 4 -17t-15 -10h-158q-11 0 -15 9.5t3 16.5zM416 100zM355 99.5q0 25.5 18 44t43.5 18.5t43.5 -18.5t18 -44t-18 -43.5t-43.5 -18t-43.5 18t-18 43.5zM707 100zM645 99.5q0 25.5 18 44t44 18.5t44 -18.5t18 -44t-18 -43.5t-44 -18
t-44 18t-18 43.5zM867 503l-65 -171q-8 -27 -28 -28h-384l11 -60h361q11 0 18.5 -8t7.5 -19t-7.5 -18.5t-18.5 -7.5h-385h-2h-1q-10 1 -17 7t-9 15l-65 357h-78q-12 0 -20 8t-8 19v26q0 11 8 19t20 8h90q5 0 11 -2q9 0 16 -6.5t9 -15.5l17 -91h489q16 0 26 -8t4 -24z" />
    <glyph glyph-name="gengduo2" unicode="&#xe805;" 
d="M176 272q46 0 79 33t33 79t-33 79t-79 33t-79 -33t-33 -79t33 -79t79 -33zM512 272q46 0 79 33t33 79t-33 79t-79 33t-79 -33t-33 -79t33 -79t79 -33zM848 272q46 0 79 33t33 79t-33 79t-79 33t-79 -33t-33 -79t33 -79t79 -33z" />
    <glyph glyph-name="vr" unicode="&#xe704;" 
d="M767 252q-6 -1 -13 -2v4q7 -1 13 -2zM912 364q-32 -63 -87 -92l-13 -3q-202 22 -253 118q-14 28 -14.5 61.5t5 51.5t12.5 33q82 17 142.5 34t94 29.5t53.5 25t25.5 21t5.5 18.5t-8 19q41 -16 59 -54.5t16.5 -81.5t-10.5 -84.5t-18 -67.5t-10 -28zM827 680q-17 5 -37 7
q-27 3 -72 -7q3 -1 6.5 -2t11 -4.5t11 -7.5t0 -10t-17.5 -12q-12 46 -37 86q-44 71 -126 110.5t-177 39.5q-103 0 -191 -51.5t-139.5 -139.5t-51.5 -192q0 -85 36 -161.5t101 -131.5v-236l424 -93v178h99q36 0 61.5 26t25.5 62v113q-27 5 -51 12q-124 33 -164 111
q-12 23 -16 49t-2 45.5t8 39t9 26.5t6 11l2 5l5 1q91 20 155 38q14 3 26 7q44 13 73 25q24 10 38 19.5t15.5 12.5t1.5 4q0 10 -33 20zM60 473q-2 19 -2 24q0 9 2 26l6 38q155 -54 276 -63q-13 -27 -13 -58q0 -48 30 -86q-79 13 -171 44q-66 22 -124 48zM703 248v-107
q0 -15 -10.5 -26t-25.5 -11h-150v-165l-322 71v219l-10 8q-77 60 -109 153q219 -91 385 -91q17 0 34 1h12q109 -48 196 -52zM549 600q-33 -5 -74 -20h-6q-55 0 -95 -38q-120 3 -297 64q35 98 120.5 160t191.5 62q86 0 159 -34t106 -99q4 -7 13.5 -31t14.5 -37
q-49 -13 -133 -27z" />
    <glyph glyph-name="dingdan" unicode="&#xe602;" 
d="M765 -81h-506q-37 0 -77.5 43t-40.5 91v547q0 45 33.5 89.5t73.5 44.5h64v-130h399v130h56q43 0 79.5 -40t36.5 -95v-550q0 -56 -36.5 -93t-81.5 -37v0v0v0zM740 457q0 6 -4 11t-10 5h-428q-6 0 -10 -5t-4 -11v-33q0 -7 4 -11.5t10 -4.5h428q6 0 10 4.5t4 11.5v33v0z
M740 294q0 7 -4 11.5t-10 4.5h-428q-6 0 -10 -4.5t-4 -11.5v-33q0 -7 4 -11.5t10 -4.5h428q6 0 10 4.5t4 11.5v33v0zM740 131q0 7 -4 11.5t-10 4.5h-428q-6 0 -10 -4.5t-4 -11.5v-33q0 -6 4 -11t10 -5h428q6 0 10 5t4 11v33v0zM483 669h-114v130h57q0 27 17 46t40 19h57
q24 0 40.5 -19t16.5 -46h57v-130h-171zM512 809q-15 0 -25.5 -12t-10.5 -29t10.5 -28.5t25 -11.5t25 12t10.5 28.5t-10.5 28.5t-24.5 12v0v0v0z" />
    <glyph glyph-name="1" unicode="&#xe60e;" 
d="M910 628l-390 224q-8 5 -16 0l-390 -224q-8 -5 -8 -15v-450q0 -10 8 -15l390 -225q4 -2 8.5 -2t7.5 2l390 225q8 5 8 15v450q0 10 -8 15v0zM512 819l356 -206l-17 -10l-96 -55l-356 206l113 65v0zM366 734l356 -206l-64 -36l-356 205l64 37v0zM738 499v-123l-31 1
q-8 0 -13 -6l-19 -22v114l63 36v0zM495 -33l-356 206v411l356 -206v-411v0zM512 407l-356 206l113 65l356 -206l-113 -65v0zM885 173l-356 -206v411l112 65v-139q0 -12 11 -16q3 -1 6 -1l0.5 0.5t1.5 0.5q7 0 11 5l43 50h41q7 0 12 5t5 12v159l113 65v-411v0z" />
    <glyph glyph-name="baobiao" unicode="&#xe605;" 
d="M557 884v-395l292 262q-123 118 -292 133zM1000 399q0 167 -103 299l-324 -292l340 -285q87 126 87 278zM486 386l3 3h-3v496q-127 -6 -233 -72.5t-167.5 -176t-61.5 -237.5q0 -99 39 -189.5t104 -155.5t155.5 -104t189.5 -39q103 0 195 41t160 114z" />
    <glyph glyph-name="gouwu3" unicode="&#xe665;" 
d="M860 832h-697q-41 0 -70 -29t-29 -71v-696q0 -41 29 -70t70 -29h697q41 0 70 29t29 70v696q0 42 -29 71t-70 29zM782 563q-17 -98 -93 -163.5t-177 -65.5t-177.5 65.5t-92.5 163.5q-29 13 -29 45q0 21 14.5 35.5t35.5 14.5t35.5 -14.5t14.5 -35.5q0 -26 -21 -41
q14 -78 76 -130.5t143.5 -52.5t143.5 52.5t77 130.5q-21 15 -21 41q0 21 14.5 35.5t35 14.5t35 -14.5t14.5 -35.5q0 -31 -28 -45z" />
    <glyph glyph-name="dinghuoguanli" unicode="&#xe62e;" 
d="M512 896q-104 0 -199 -40.5t-163.5 -109t-109 -163.5t-40.5 -199t40.5 -198.5t109 -163.5t163.5 -109.5t199 -40.5t198.5 40.5t163.5 109.5t109.5 163.5t40.5 198.5t-40.5 199t-109.5 163.5t-163.5 109t-198.5 40.5zM512 -76q-94 0 -179.5 36.5t-147 98t-98 146.5
t-36.5 179t36.5 179.5t98 147t147 98t179.5 36.5t179 -36.5t146.5 -98t98 -147t36.5 -179.5t-36.5 -179t-98 -146.5t-146.5 -98t-179 -36.5zM380 554q-28 67 -78 131l-59 -28q45 -61 75 -131zM341 184v235q0 54 5 70q-19 -5 -78 -5h-17q-64 0 -78 5v-64q34 5 78 5h31v-223
q0 -51 -17 -73l40 -50q52 50 148 120l-20 67q-25 -31 -92 -87zM511 626q-39 0 -81 6h-5v-67q36 5 86 5h121v-425q11 -33 -87 -22q14 -17 22 -62q3 -5 3 -8q72 7 102 23t18 41v453h23q72 0 98 -5v67q-25 -6 -101 -6h-199z" />
    <glyph glyph-name="genzongdingwei" unicode="&#xe61b;" 
d="M512 530q-61 0 -103.5 -42.5t-42.5 -103.5t42.5 -103.5t103.5 -42.5t103.5 42.5t42.5 103.5t-42.5 103.5t-103.5 42.5zM512 311q-30 0 -51.5 21.5t-21.5 51.5t21.5 51.5t51.5 21.5t51.5 -21.5t21.5 -51.5t-21.5 -51.5t-51.5 -21.5zM1024 421h-75q-13 159 -127 273
t-273 127v75h-74v-75q-159 -13 -273 -127t-127 -273h-75v-74h75q13 -159 127 -273t273 -127v-75h74v75q159 13 273 127t127 273h75v74zM549 20v71h-74v-71q-129 13 -221.5 105.5t-105.5 221.5h71v74h-71q13 129 105.5 221.5t221.5 105.5v-71h74v71q129 -13 221.5 -105.5
t105.5 -221.5h-71v-74h71q-13 -129 -105.5 -221.5t-221.5 -105.5z" />
    <glyph glyph-name="xinfeng81" unicode="&#xe613;" 
d="M584 709h126q5 0 9.5 4t4.5 10t-4.5 10t-9.5 4h-126v0q-6 0 -10 -4t-4 -10v0v0q0 -6 4 -10t10 -4v0zM345 597h365q5 0 9.5 4t4.5 10t-4.5 10t-9.5 4h-365q-5 0 -9.5 -4t-4.5 -10t4.5 -10t9.5 -4v0zM724 499v0q0 6 -4.5 10t-9.5 4v0h-365q-5 0 -9.5 -4t-4.5 -10t4.5 -10
t9.5 -4h365q5 0 9.5 4t4.5 10zM950 505l-114 48v238q0 24 -17 41t-42 17h-499q-24 0 -41.5 -17t-17.5 -41v-238l-104 -44q-15 -6 -25.5 -21.5t-10.5 -31.5v-1v-444q0 -24 17 -41t42 -17h780q24 0 41 17t17 41v455v0q0 12 -8 23.5t-18 15.5zM836 523l95 -41l-95 -60v101z
M247 791q0 12 9 21t22 9h499q13 0 22 -9t9 -21v-386l-264 -166q-8 -4 -16.5 -4t-15.5 4l-265 166v386zM126 483l93 40v-101l-95 60l0.5 0.5t1.5 0.5zM948 11q0 -13 -9 -21.5t-21 -8.5h-780q-13 0 -22 8.5t-9 21.5v444q0 1 0.5 2.5l0.5 1.5l389 -243q14 -9 30 -9h1q16 0 30 9
l390 244v-449z" />
    <glyph glyph-name="shoukuan" unicode="&#xe631;" 
d="M949 374q-18 19 -43 20h-2h-83v302q0 81 -81 81h-424q-40 0 -60 -20q-21 -21 -21 -61v-302h-81q-9 0 -17 -2q-21 -6 -34 -23.5t-13 -39.5q0 -24 16 -43h1l337 -295q38 -30 84 -30q51 0 86 31l338 295q15 19 15 42q0 26 -18 45zM926 311l-334 -293q-26 -22 -64 -22
q-34 0 -63 22l-333 292q-7 9 -7 19t6 18.5t16 10.5v0l1 1q3 1 6 1h116v336q0 26 10.5 36t35.5 10h424q26 0 36 -10t10 -36v-336h115l1 -1h1q12 0 20.5 -9t8.5 -21q0 -10 -6 -18zM528 -46q-49 0 -89 31l-1 1l-337 296q-18 20 -18 47q0 24 14.5 43.5t37.5 26.5q9 2 19 2h74
v295q0 43 23 66q22 22 65 22h424q88 0 88 -88v-295h77h2q27 -2 47 -22v0q20 -21 20 -50q0 -26 -17 -46l-1 -2h-1l-336 -295q-37 -32 -91 -32zM448 -4q36 -28 80 -28q49 0 82 29l336 295q14 16 14 37q0 23 -16 40t-39 18v0h-1h-90v309q0 74 -74 74h-424q-37 0 -55 -18
q-19 -19 -19 -56v-309h-88q-8 0 -15 -2v0q-19 -5 -30.5 -20.5t-11.5 -35.5q0 -21 14 -38h1l336 -295v0zM528 -11q-36 0 -67 23v1l-335 293q-8 10 -8 23t7.5 23t19.5 13l1 1q4 1 8 1h109v329q0 29 12.5 41t40.5 12h424q29 0 41.5 -12t12.5 -41v-329h108h1h1q15 -1 25 -12
t10 -26q0 -12 -8 -23v0l-1 -1l-334 -292q-27 -24 -68 -24zM470 23q27 -20 58 -20q36 0 59 20l333 293q5 6 5 13q0 10 -6.5 16.5t-15.5 6.5l-2 1h-122v343q0 23 -8 31t-31 8h-424q-23 0 -31 -8t-8 -31v-344h-123h-4l-1 -1h-1q-16 -5 -16 -22q0 -8 5 -14zM670 324h-125v65h125
q6 0 11 4.5t5 11.5t-5 11.5t-11 4.5h-119l106 126q10 12 -2 22t-22 -2l-105 -122l-104 122q-4 5 -11 5.5t-12 -3.5q-12 -10 -2 -23l107 -125h-119q-7 0 -11.5 -4.5t-4.5 -11.5t4.5 -11.5t11.5 -4.5h125v-66h-125q-7 0 -11.5 -4.5t-4.5 -11t4.5 -11.5t11.5 -5h125v-88
q0 -6 5 -10.5t11.5 -4.5t11.5 4.5t5 10.5v88h125q7 0 11.5 5t4.5 11.5t-4.5 11.5t-11.5 5zM528.5 181q-9.5 0 -16.5 6.5t-7 15.5v81h-118q-10 0 -16.5 7t-6.5 16.5t6.5 16.5t16.5 7h118v51h-118q-10 0 -16.5 6.5t-6.5 16.5t6.5 16.5t16.5 6.5h103l-96 114q-6 7 -5.5 16.5
t8 16t17.5 5.5q9 -1 15 -8l99 -116l99 116q6 7 15.5 8t17.5 -5v-1q7 -6 8 -15.5t-5 -16.5l-97 -114h104q9 0 16 -6.5t7 -16.5t-7 -16.5t-16 -6.5h-118v-51h118q10 0 16.5 -7t6.5 -16.5t-6.5 -16.5t-16.5 -7h-118v-81q0 -9 -7 -15.5t-16.5 -6.5zM387 316q-9 0 -9 -9t9 -9h132
v-95q0 -8 9 -8t9 8v95h133q9 0 9 9t-9 9h-133v80h133q8 0 8 9t-8 9h-135l117 137q5 7 -1 13q-7 5 -13 -1l-110 -129l-109 129q-3 2 -6 3h-1q-3 0 -6 -2q-3 -3 -3.5 -6.5t2.5 -6.5l116 -137h-134q-9 0 -9 -9t9 -9h132v-80h-132z" />
    <glyph glyph-name="back2" unicode="&#xe61d;" 
d="M511 387zM78 386.5q0 -117.5 58 -217t158 -157.5t217.5 -58t217 58t157.5 157.5t58 217t-58 217.5t-157.5 158t-217 58t-217.5 -58t-158 -158t-58 -217.5zM567 167l-239 222l239 222l23 -24l-213 -198l213 -198z" />
    <glyph glyph-name="shoukuan1" unicode="&#xe628;" 
d="M346 546l228 208q6 6 14 6t14 -6l193 -176q5 -5 5 -12.5t-5 -12.5l-8 -7h13q41 0 69.5 -26.5t28.5 -63.5v-321q0 -37 -28.5 -63t-69.5 -26h-585q-40 0 -69 26t-29 63v321q0 37 29 63.5t69 26.5h131zM731 546l22 19l-165 152l-187 -171h330zM273 510v0q-5 0 -10 2
q-7 4 -9 11t2 14l136 214q4 6 12 8t15 -1l114 -60q7 -4 9 -11t-2 -13.5t-12 -8.5t-15 2l-97 51l-126 -199q-6 -9 -17 -9zM155 460v-328q0 -22 17 -35.5t42 -13.5h591q25 0 41 13.5t16 35.5v328q0 22 -16 34t-41 12h-594q-25 0 -40.5 -12t-15.5 -34zM742 224q-32 0 -55 21
t-23 50.5t23 50.5t55 21t55 -21t23 -50.5t-23 -50.5t-55 -21zM742 331q-16 0 -27.5 -10.5t-11.5 -25t11.5 -25t27.5 -10.5t27.5 10.5t11.5 25t-11.5 25t-27.5 10.5z" />
    <glyph glyph-name="dinghuo" unicode="&#xe62f;" 
d="M786 716h-110v56q0 24 -17.5 39.5t-37.5 15.5h-222q-23 0 -39 -14.5t-16 -40.5v-56h-111q-23 0 -39 -16t-16 -39v-665q0 -23 16 -39t39 -16h554q23 0 39 16t16 39v665q0 23 -16 39t-40 16zM399 772h222v-111h-222v111zM306 131l38 132l95 -95zM453 182l-96 94l210 208
l95 -94zM705 433l-29 -29l-95 95l29 28q8 8 18.5 8.5t18.5 -7.5l59 -58q8 -8 7.5 -19t-8.5 -18z" />
    <glyph glyph-name="gengduo1" unicode="&#xe651;" 
d="M938 572q-34 80 -95.5 142t-141.5 96q-83 35 -174 35t-174 -35q-80 -34 -141.5 -96t-95.5 -142q-35 -83 -35 -173.5t35 -173.5q34 -80 95 -142q18 -18 37 -33q48 -39 105 -63q83 -35 174 -35t174 35q56 24 105 63q19 15 37 33q61 62 95 142q35 83 35 173.5t-35 173.5z
M904 239q-31 -73 -88 -130q-34 -34 -74 -59q-27 -17 -56 -29q-76 -32 -159 -32t-159 32q-29 12 -56 29q-40 25 -74 59q-57 57 -88 130q-32 76 -32 159.5t32 159.5q31 73 87.5 130t130.5 88q76 32 159 32t159 -32q74 -31 130.5 -88t87.5 -130q32 -76 32 -159.5t-32 -159.5z
M328 380zM285 380q0 -18 12.5 -30.5t30.5 -12.5t31 12.5t13 30.5t-13 30.5t-31 12.5t-30.5 -12.5t-12.5 -30.5zM527 380zM483 380q0 -18 13 -30.5t31 -12.5t30.5 12.5t12.5 30.5t-12.5 30.5t-30.5 12.5t-31 -12.5t-13 -30.5zM726 380zM682 380q0 -18 13 -30.5t31 -12.5
t30.5 12.5t12.5 30.5t-12.5 30.5t-30.5 12.5t-31 -12.5t-13 -30.5z" />
    <glyph glyph-name="wenzhang" unicode="&#xe632;" 
d="M614 896h-409q-42 0 -72 -30t-30 -72l-1 -820q0 -42 30 -72t72 -30h615q42 0 72.5 30t30.5 72v615zM717 77h-410v102h410v-102zM717 282h-410v102h410v-102zM563 538v281l282 -281h-282z" />
    <glyph glyph-name="16jiajianjian-copy" unicode="&#xe876;" 
d="M141 396h742v-24h-742v24z" />
    <glyph glyph-name="15jiajianjia-copy" unicode="&#xe877;" 
d="M860 395h-337v337h-22v-337h-337v-22h337v-337h22v337h337v22z" />
    <glyph glyph-name="profit" unicode="&#xe60f;" 
d="M902 158q-18 -13 -147 -90.5t-169 -101.5q-33 -19 -50.5 -20t-66.5 13q-98 32 -145 54q-55 27 -96 0l-49 -30l-104 234q85 41 137 61q41 16 69 17t43.5 -5t43.5 -24q9 -6 30 -21t38 -27l16 -12q5 -5 14 -11t40.5 -16.5t68.5 -10.5q43 0 63 -7.5t20 -29.5
q0 -10 -6.5 -17.5t-15.5 -11t-19.5 -5.5t-15.5 -2.5t-7 -0.5h-119q-24 0 -55.5 7.5t-52.5 15.5l-20 8l7.5 -7.5t19 -16.5t29 -21t34.5 -16.5t38 -7.5h120q20 0 41 6.5t40 24.5t19 44q0 18 -5 31t-16.5 21t-22 12.5t-32 6.5t-35 2.5t-40.5 0.5q-8 0 -19 2q7 4 11 6
q21 12 58 35q31 20 51.5 27t37.5 1.5t32 -25.5q27 27 70 27q20 0 32.5 -12.5t8.5 -31.5q79 47 111 4q28 -35 -35 -80zM365 520q0 69 48.5 118t116.5 49t116.5 -49t48.5 -118t-48.5 -118t-116.5 -49t-116.5 49t-48.5 118zM466 545h39v-101h50v151h-39zM657 725h-30l39 39h30
v-118h-8q34 -42 41 -97q26 34 39 53.5t25 48t12 54.5q0 54 -37.5 92t-91.5 38q-48 0 -84 -32t-42 -80q60 -6 107 -45v47z" />
    <glyph glyph-name="ic_local_shipping_px" unicode="&#xe71a;" 
d="M853 555h-128v170h-597q-35 0 -60 -25t-25 -60v-469h85q0 -53 37.5 -90.5t90.5 -37.5t90.5 37.5t37.5 90.5h256q0 -53 37.5 -90.5t90.5 -37.5t90.5 37.5t37.5 90.5h85v213zM256 107q-27 0 -45.5 18.5t-18.5 45t18.5 45.5t45.5 19t45.5 -19t18.5 -45.5t-18.5 -45
t-45.5 -18.5zM832 491l84 -107h-191v107h107zM768 107q-27 0 -45.5 18.5t-18.5 45t18.5 45.5t45.5 19t45.5 -19t18.5 -45.5t-18.5 -45t-45.5 -18.5z" />
    <glyph glyph-name="zaixiankefu" unicode="&#xe6f6;" 
d="M867 461.5q0 95.5 -54 176.5t-146.5 128t-201.5 47t-201 -47t-146 -128t-54 -177q0 -81 41 -154.5t114 -123.5v-75q0 -16 8.5 -30.5t22.5 -22.5q14 -7 30 -7q18 0 32 9l46 31q3 1 5 3l35 23q34 -5 67 -5q109 0 201.5 47.5t146.5 128.5t54 176.5zM465 155q-33 0 -68 6
q-2 1 -4 1q-7 0 -13 -4l-44 -30q-2 -1 -3 -2v0h-1l-46 -30q-6 -4 -14 0q-7 4 -7 12v88q0 12 -11 19q-67 43 -105.5 108.5t-38.5 137.5q0 83 47.5 153.5t129.5 111.5t178.5 41t178 -41t129 -111.5t47.5 -153.5t-47.5 -153.5t-129 -111.5t-178.5 -41zM324.5 508
q-16.5 0 -28 -12t-11.5 -28t11.5 -27.5t28 -11.5t28.5 11.5t12 27.5t-12 28t-28.5 12zM474.5 508q-16.5 0 -28.5 -12t-12 -28t12 -27.5t28.5 -11.5t28 11.5t11.5 27.5t-11.5 28t-28 12zM623.5 508q-16.5 0 -28 -12t-11.5 -28t11.5 -27.5t28 -11.5t28.5 11.5t12 27.5t-12 28
t-28.5 12zM953 339q-6 26 -18 51q-5 9 -14 12t-18 -1.5t-12 -13.5t1 -18q10 -21 15 -41q6 -24 6 -49q0 -53 -27.5 -102t-76.5 -82q-10 -7 -10 -19v0v-60q0 -8 -7 -13q-10 -3 -16 1l-34 22l-2 2l-29 20q-6 4 -13 4q-2 0 -4 -1q-100 -16 -185 30q-5 3 -11 3q-3 0 -7 -1
q-9 -3 -13.5 -11.5t-2 -18t11.5 -14.5q94 -50 205 -35l19 -13q3 -3 6 -5l33 -21q15 -10 34 -10q12 0 26 5q2 1 4 1q32 18 32 55v47q54 40 84 97t30 119q0 31 -7 60z" />
    <glyph glyph-name="fankui" unicode="&#xe673;" 
d="M228 696q-8 9 -20.5 9t-21.5 -9t-9 -21.5t9 -20.5l42 -42q9 -9 21.5 -9t21 8.5t8.5 21t-8 21.5zM795 696l-42 -42q-9 -9 -9 -21.5t9 -21t21 -8.5t21 8l42 43q9 8 9 20.5t-8.5 21t-21 8.5t-21.5 -8zM154 460h-60q-12 0 -21 -9t-9 -21t9 -21t21 -9h60q12 0 21 9t9 21t-9 21
t-21 9zM929 460h-59q-13 0 -21.5 -9t-8.5 -21t8.5 -21t21.5 -9h59q13 0 21.5 9t8.5 21t-8.5 21t-21.5 9zM482 803v-60q0 -12 8.5 -21t21 -9t21.5 9t9 21v60q0 12 -9 20.5t-21.5 8.5t-21 -8.5t-8.5 -20.5zM243 385q0 -111 79 -189.5t190 -78.5t189.5 78.5t78.5 189.5
t-78.5 190t-189.5 79t-190 -79t-79 -190zM452 -31.5q0 -12.5 9 -21.5t21 -9h60q12 0 20.5 9t8.5 21.5t-8.5 21t-20.5 8.5h-60q-12 0 -21 -8.5t-9 -21zM392 57.5q0 -12.5 9 -21t21 -8.5h179q13 0 21.5 8.5t8.5 21t-8.5 21t-21.5 8.5h-179q-12 0 -21 -8.5t-9 -21z" />
    <glyph glyph-name="kehu1" unicode="&#xe629;" 
d="M463 -70l18 257q0 13 9 21.5t22 8.5t22 -8.5t9 -21.5l18 -257l-49 -42zM947 -128q-15 0 -26 11t-11 26q0 72 -29.5 138t-86.5 118q-56 51 -127 78q-74 29 -156 29t-157 -29q-71 -27 -127 -78q-56 -52 -86 -118t-30 -138q0 -15 -11 -26t-26 -11t-25.5 11t-10.5 26
q0 89 37 171q37 79 103 139q64 60 150 93q2 1 5.5 2t5.5 2l15 6l-13 8q-65 44 -101.5 112t-36.5 145q0 128 90 218.5t218 90.5t218.5 -90.5t90.5 -218.5q0 -77 -36.5 -145.5t-101.5 -111.5l-13 -8l15 -6q2 -1 5.5 -2t5.5 -2q86 -33 151 -93t102 -139q38 -82 38 -171
q-2 -16 -12.5 -26.5t-26.5 -10.5zM511 822q-96 0 -166 -69q-69 -69 -69 -167q0 -96 69 -166q69 -69 166 -69t167 69q68 69 68 166t-68 167q-69 69 -167 69z" />
    <glyph glyph-name="zaixiankefu1" unicode="&#xe638;" 
d="M638 337v0q-23 0 -39 -16t-16 -39t16 -39t39 -16t39 16t16 39v0q0 23 -16 39t-39 16zM376 338v0q-23 0 -39.5 -16.5t-16.5 -39.5t16.5 -39.5t39.5 -16.5t39.5 16.5t16.5 39.5v0q0 23 -16.5 39.5t-39.5 16.5zM901 376v27q4 186 -105 296q-50 52 -122 79q-5 50 -52.5 84
t-112.5 34t-112.5 -34t-52.5 -84q-72 -27 -122 -79q-109 -110 -105 -296v-32q-35 -36 -22 -86q5 -19 21.5 -36.5t34.5 -24.5q4 -2 6 -3.5t3.5 -3.5t1.5 -3t1 -5t1 -8q13 -57 43.5 -113.5t74 -105t104.5 -79t127 -31.5q62 -1 123 31t106 82.5t77.5 110t45.5 115.5h3
q9 0 10.5 2t2 7.5t6.5 10.5q13 7 25.5 23t16.5 31q14 54 -28 91zM807 295q0 -20 -3 -39q-41 -67 -105.5 -113t-140.5 -54q-14 18 -43 18q-21 0 -35 -9.5t-14 -23.5q0 -51 49 -50q17 0 30.5 7.5t16.5 19.5q51 5 98 24q55 23 108 71q11 11 15 19q-35 -88 -113 -157t-157 -69
h-1q-47 -1 -100 30t-95.5 80.5t-70.5 115.5t-28 131l-1 17q0 8 2 47q27 9 50.5 26.5t38 33.5t26.5 34.5t15.5 26.5t5.5 13l15 58q3 -5 8.5 -13t22 -28t35.5 -38t49.5 -37.5t62.5 -31.5t95 -26q42 -9 63.5 -15t51 -22.5t48.5 -40.5q1 -1 1 -2v-3z" />
    <glyph glyph-name="gongchang1" unicode="&#xe624;" 
d="M788 503l96 -41v-151l7 -7l54 -58v-238h56v258l-7 8l-54 57v162l-14 7l-138 61l-281 -86v-458h281v486zM239 628q-45 -11 -54 -13v-80q37 7 54 10v83zM742 487v-67q-28 -5 -46 -8v64q19 4 46 11zM579 272v-57h-33v55q15 1 33 2zM654 277v-62h-39v59q20 2 39 3zM742 282
v-67h-46v64q9 1 46 3zM579 359v-56q-26 -3 -33 -4v55q8 1 33 5zM654 371v-61q-5 -1 -12 -1.5t-15 -1.5t-12 -1v59q4 1 39 6zM742 385v-67q-6 -1 -22 -2.5t-24 -1.5v63q26 4 46 8zM579 447v-57q-16 -3 -33 -6v54q12 3 33 9zM654 465v-61q-7 -1 -21.5 -4t-17.5 -3v59
q7 1 20.5 4.5t18.5 4.5zM358 658q-9 -2 -19.5 -4.5t-23.5 -6t-20 -4.5v-87q22 4 63 11v91zM137 365q-11 -1 -46 -3v-74h46q-1 38 0 77zM239 371q-28 -1 -54 -3v-80h54v83zM358 379q-10 -1 -31 -2.5t-32 -1.5v-87h63v91zM137 484q-25 -4 -46 -7v-75l18 2t28 2v78zM239 500
q-7 -1 -25.5 -4t-28.5 -5v-80q26 3 54 5v84zM358 518q-9 -1 -30.5 -4.5t-32.5 -4.5v-88q32 3 63 6v91zM137 603q-7 -2 -22.5 -5.5t-23.5 -5.5v-75q19 3 46 9v77zM421 758l183 -90l14 -8v-136h-56v106l-141 69v-682h-383v625z" />
    <glyph glyph-name="geren" unicode="&#xe637;" 
d="M693 730q7 -27 8 -37.5t1 -36.5q0 -1 -4 -43t-2 -54q0 -7 1.5 -11t5 -10t5.5 -9q12 -27 3 -79q-5 -28 -15 -41q-4 -5 -16 -11.5t-16 -13.5q-6 -10 -7 -34t-4 -33t-15 -24t-13 -32q5 -1 14 -2t14 -2q29 -62 44 -72q2 -1 18.5 -5.5t25.5 -6.5q30 -12 87.5 -37t73.5 -31
q10 -5 35 -13.5t37.5 -14t27 -18.5t20.5 -31q0 -10 1.5 -70.5t0.5 -85.5h-1024q0 25 1 85.5t1 70.5q6 18 21 31t27.5 18.5t37.5 14t35 13.5q16 7 73.5 31.5t86.5 36.5l44 12q15 10 44 72l21 5q-2 15 -13.5 27.5t-14.5 19.5q-1 14 -3.5 42t-4.5 42l-4.5 1t-10 2.5t-6.5 1.5
q-8 5 -13.5 15t-8.5 26t-4.5 25.5t-3 28.5t-1.5 20q0 5 7.5 20t4.5 29q-21 100 2.5 155.5t78.5 73.5q26 11 43.5 16.5t49.5 11.5t63 0t60 -24l20 -19l33 -5q7 -5 14 -15t10 -18z" />
  </font>
</defs>
</svg>
